<svg width="17" height="19" viewBox="0 0 17 19" fill="none" xmlns="http://www.w3.org/2000/svg">
<path d="M5.66667 8.55V10.45H3.77778V8.55H5.66667ZM9.44444 8.55V10.45H7.55556V8.55H9.44444ZM13.2222 8.55V10.45H11.3333V8.55H13.2222ZM15.1111 1.9C15.6121 1.9 16.0925 2.10018 16.4468 2.4565C16.801 2.81282 17 3.29609 17 3.8V17.1C17 17.6039 16.801 18.0872 16.4468 18.4435C16.0925 18.7998 15.6121 19 15.1111 19H1.88889C0.840555 19 0 18.145 0 17.1V3.8C0 3.29609 0.199007 2.81282 0.553243 2.4565C0.907478 2.10018 1.38792 1.9 1.88889 1.9H2.83333V0H4.72222V1.9H12.2778V0H14.1667V1.9H15.1111ZM15.1111 17.1V6.65H1.88889V17.1H15.1111ZM5.66667 12.35V14.25H3.77778V12.35H5.66667ZM9.44444 12.35V14.25H7.55556V12.35H9.44444ZM13.2222 12.35V14.25H11.3333V12.35H13.2222Z" fill="white"/>
</svg>
