<svg version="1.0" xmlns="http://www.w3.org/2000/svg" width="946" height="264" viewBox="0 0 946 264"><g fill="#87c02e"><path d="M8.3 247.6l-2.8-2.4-.3-82.9c-.2-55.2 0-84 .7-86.4.7-2.3 2-4 3.6-4.7 4-1.9 63.8-1.6 73.6.3 15.8 3 27.4 9 32.9 17 6.3 9.2 7.4 12.9 7.4 26 .1 10.9-.1 12.5-2.5 17.5-3.7 7.6-8.8 13.2-15.3 16.6-3.1 1.6-5.6 3.4-5.6 3.9 0 .6 2.6 1.8 5.8 2.7 18 5.3 29.2 21.2 29.2 41.7 0 28.5-18.6 46.9-52.7 52-4 .6-21.5 1.1-39.2 1.1h-32l-2.8-2.4zm72.8-25.5c12.3-3.9 19.7-16.6 17.1-29.4-1.3-6.7-5.4-13.6-9.8-16.6-6.4-4.4-11.7-5.4-30.4-5.5l-17.5-.1-.3 25.5c-.1 14 0 26.1.3 26.8.4 1.1 4 1.3 18.8.9 10-.2 19.8-.9 21.8-1.6zM75 142.4c5.6-2.6 11.5-9 12.9-14.1 2.7-9.4.6-19.8-4.9-25.3s-11.6-7-28.6-7H40v23.8c0 13.1.3 24.2.8 24.6.4.4 7.2.6 15.2.4 11.9-.3 15.3-.8 19-2.4zM204 248.7c-1.4-.8-3.5-2-4.8-2.8-6.1-3.7-8.6-17.1-4.3-22.9 2.6-3.6 2.6-4.2 0-5.8-3.1-2-2.4-4.4 10.9-35.7.9-2.2 3.2-6.1 5-8.7 1.7-2.6 3.2-5.3 3.2-6-.1-.7-2.2-2.3-4.9-3.5-12.2-5.8-29.4-39.6-35.7-70.5C170.2 77.6 172 76 192 76h13.6l1.2-4.4c1.9-7.1 9-16.5 16.1-21.3 6.9-4.6 18.3-8.9 20.3-7.7.7.4.3-.4-.9-1.7-1.2-1.3-4.4-6.7-7.3-11.9-5.8-10.8-9-14.6-14-16.7l-3.5-1.5 3-2.4c9.8-7.8 31.1-4.3 42.8 7.1 6.2 6 8.9 11.5 9.1 18.4.1 4.8.4 5.6 2.1 5.9 1.5.2 2.6-.9 4.4-4.7 1.3-2.8 4.7-7.6 7.5-10.7 4.4-4.8 5.7-5.6 9.6-6.1l4.5-.6-7.1 7.4c-7.1 7.6-10.5 11.9-11.7 15.3-.5 1.3-.3 1.7.7 1.3 2.3-.9 13.1 1.1 21 3.9 14.3 5 27.1 15.2 31.1 24.8.9 2 1.9 3.6 2.3 3.6.5 0 2.3-4.4 4.2-9.7 6.4-19.1 5.3-18.3 25-18.3h15.9l2 2.6c1.2 1.5 2.1 3.7 2.1 4.9 0 1.2-.9 3.4-2.1 4.9-2 2.5-2.3 2.6-14 2.6H358l-1.6 3.8c-.8 2-3.3 8.7-5.3 14.7-2.1 6.1-5.5 15.5-7.6 21-2 5.5-4.5 12.5-5.5 15.5s-3.3 9.3-5 14c-1.8 4.7-5 13.6-7.1 19.9l-3.9 11.4v26.8c0 25.6-.1 27-2 28.9-2.5 2.5-2.5 2.4.2 6.1 1.6 2.1 2.2 4.4 2.2 8.2.2 16.4-18 24.5-31.1 14-5.3-4.3-6.8-14.6-3.1-22.1 1.9-4.1 2-4.6.5-5.7-1.5-1-1.7-4.4-1.9-26.1l-.3-24.9-13.2-.3c-11.6-.2-13.7 0-17.2 1.7-6.1 3.1-14.1 14.3-16.5 23.1-.4 1.4-2.6 7.6-4.8 13.8-3.4 9.4-4.5 11.5-6.9 12.8l-2.9 1.5 2 3.9c4.5 8.8 1.2 20.5-6.9 24.7-5 2.6-12.2 3-16.1 1zm11.9-12.3c2.7-3.4 2.7-6.2-.1-9.1-4.2-4.5-11.8-1.7-11.8 4.4 0 6.5 8 9.6 11.9 4.7zm92.8.4c3.8-3.5 2.6-10-2.2-11.8-3.3-1.3-5.9-.3-7.8 3-2.2 3.7-2.1 5.2.4 8.4s6.4 3.4 9.6.4zm-78.4-86.3c1-.5.5-1.5-2-4.3-5.6-6-12.3-15.2-12.9-17.8-.6-2.3-1-2.4-8-2.4-5.3 0-7.4.4-7.4 1.3 0 2.5 5.7 10.8 11.3 16.6 5.4 5.6 6.2 6 11 6.4 2.9.2 5.5.4 5.9.5.3.1 1.3 0 2.1-.3zm4.3-23.1c-.3-.8-1.3-1.3-2.3-1.3-1.7.1-1.7.2 0 .6 1.1.3 1.7 1.5 1.8 3.6.1 2.5.3 2.7.6.9.3-1.3.2-3-.1-3.8zm-25.1-10.6c-2.5-7.7-4.4-15.8-4.4-18.6-.1-6.1-1.4-7.2-8.6-7.2-6.2 0-6.5.1-6.5 2.5 0 1.3.6 4.4 1.4 6.7.8 2.4 2.3 7.6 3.5 11.6l2.2 7.2h6.5c6.4 0 6.6-.1 5.9-2.2z"/><path d="M370.8 248.2c-13.1-3.5-22.1-12.3-27.6-27-2.3-6.2-2.6-8.3-3-26.6-.5-22.6.7-35.4 4.4-46.5 4.4-13.2 9.1-19.3 17.8-23.1 4-1.8 7.9-2.4 23.5-3.1 10.2-.6 19.6-1.2 20.9-1.5 1.4-.3 2.9-1.7 3.7-3.7 2.4-5.8 10.6-7.6 14.9-3.4 2.6 2.6 4.1 9.1 3.1 13.5-.3 1.6-1.8 4.3-3.3 6.1-3.9 4.7-10.5 6.2-30.7 7-18.7.7-20.1 1.1-24.9 7.4-2.8 3.7-5.2 12.5-3.8 13.9.6.6 3-.1 6.2-1.7 14.5-7.3 36.5-4.2 46.6 6.7 12.6 13.4 15.8 39.1 7.3 59.3-4 9.8-12.4 17.9-21.9 21.3-9 3.3-24 3.9-33.2 1.4zm22.8-23.7c4.2-2.1 5.5-3.4 7.5-7.7 2-4.4 2.4-6.6 2.4-15.2-.1-11.8-2.4-18.1-8-21.6-7.4-4.6-18.1-3.4-23.4 2.6-5 5.6-6.4 9.9-6.4 19.6 0 7.6.3 9.4 2.9 14.4 5 10 14.7 13 25 7.9zM585.6 248.9c-25.5-6-41.1-34.2-34.5-62.4 3.6-15.3 14.8-28.5 29.1-34.3 7.4-2.9 23.5-3.3 32.5-.7 11.2 3.3 22.1 13.1 27.9 25.2 5.8 12.3 5.6 34-.5 47-3.6 7.6-12.7 17.6-19.1 20.8-10.2 5.2-24.5 6.9-35.4 4.4zm18.1-24c11.7-4.4 17.5-24.4 11-37.9-4.8-10.1-8.6-13-17.3-13-8.3 0-12.9 3.3-16.8 12-2.5 5.5-2.8 7.1-2.4 14.9.4 11.6 4 19.1 10.8 22.7 4.8 2.6 10.1 3.1 14.7 1.3zM882.9 248.9c-16.3-3.8-30-17.5-34.4-34.4-1.9-7.5-1.9-21.4 0-28.8 3.7-14.2 13.2-26.1 25.5-32.1 6-2.8 7.5-3.1 18.6-3.4 14.1-.5 19.5.8 27.9 6.4 10 6.6 16.4 15.8 19.5 28.1 3.6 13.9 1.9 30.4-4.4 42-3.6 6.5-11.9 14.9-17.8 17.9-9.7 4.9-24.7 6.8-34.9 4.3zm21.9-26.6c13.8-11.1 13-36.3-1.4-46.2-2.8-2-4.3-2.3-9.6-1.9-7.7.5-11.5 2.9-15.4 10.2-5.6 10.2-3.9 28.3 3.2 35.7 6.5 6.8 16.3 7.8 23.2 2.2zM444.8 248.1c-6.7-1.4-9.6-6.1-8.1-13.2.7-3.9 3.9-5.9 10.4-6.8l5.1-.6.2-27.5c.3-29.9.8-33.5 6-40.3 1.5-2 4.9-4.5 7.9-5.8 5-2.3 6.4-2.4 31.4-2.7 29.5-.4 31.1-.1 34.1 6.6 1.4 3.2 1.7 8.6 2 37.8.4 44.4-.4 49.1-9.5 52.3-5.7 2-11.9 0-14.8-4.9-1.9-3.3-2-5.4-2.3-36.2l-.3-32.8h-13c-18.3 0-16.9-2.6-16.9 30.9 0 17.6-.4 28-1.2 30.2-3 8.9-9 12.9-20.2 13.4-3.9.2-8.8 0-10.8-.4zM717 247.3c-6.2-3.2-7.5-6.9-7.8-23l-.4-14.3h-2.6c-25.1-.5-36.2-2.8-42.5-8.8-5.4-5.1-6.1-7.6-6.5-22.7-.6-21.9 1.8-27 12.8-27 10.2 0 13 4.9 13 22.9 0 10.5.1 10.8 2.8 13.6 3.1 3.1 9.7 4.4 18.2 3.8l4.5-.3.5-15c.6-17 1.8-21 7.4-24 4-2.2 11.7-1.6 14.7 1.1 4.5 4.1 5.1 9.7 4.7 49.1-.2 27.8-.6 37.4-1.6 39.3-3.2 6-11.1 8.5-17.2 5.3zM765 247.3c-2.1-1.1-4.3-3.4-5.5-5.8-1.9-3.7-2-6.3-2.3-40.4-.2-31.8-.1-36.9 1.4-40.6 2.2-5.9 5.4-8.6 10.7-9.2 9.6-1.1 13.5 4.5 14.4 20.7.2 5.2.7 10.1.9 10.9.3.9 5.9-4.1 15.2-13.7 17.6-18.1 22.4-20.7 30.2-16.7 3.7 1.9 5 4.3 5 9.2 0 5.4-2.3 8.6-14.9 20.3-6.1 5.7-11.1 10.6-11.1 11 0 .3 1.2 2 2.8 3.8 1.5 1.7 5.9 6.8 9.7 11.3 3.9 4.5 9.2 10.7 11.9 13.8 5.8 6.7 7.6 10.6 7.6 16.5 0 5.3-2.3 8-7.9 9.6-4.9 1.3-6 1.2-10.7-.9-3.9-1.8-9.6-8-18-19.7-7-9.9-14.5-19.4-15.2-19.4-.4 0-1.7.7-2.9 1.5-1.9 1.3-2.1 2.6-2.5 15.2-.5 18.8-2.3 22.5-11.4 23.8-2.7.4-5 0-7.4-1.2z"/></g><path d="M206 74.3c.1-6.1 8.9-18.7 16.8-23.9 6.5-4.4 17.8-8.8 20.1-7.9 1 .4.9-.1-.6-1.7-1.2-1.3-4.4-6.6-7.3-11.8-5.8-10.8-9-14.6-14-16.7l-3.5-1.5 3-2.4c6.9-5.5 21.7-5.4 33.1.1 6.1 3 13.6 10 16.2 15.2 2.2 4.4 3.6 10.9 2.5 11.6-.5.3-2.8-1.8-5.3-4.7-2.5-2.9-6.5-6.8-9-8.6-4.8-3.7-19.2-10-22.5-9.9-1.1 0-.2.6 2 1.3 13.8 4.5 23.8 11.8 31.1 22.8 3.3 4.9 5 6.7 5.2 5.5.2-.9.9-1.7 1.5-1.7.7 0 2.3-2.2 3.6-5 1.3-2.7 4.7-7.5 7.5-10.6 4.4-4.8 5.7-5.6 9.6-6.1l4.5-.6-7.1 7.4c-7.1 7.6-10.5 11.9-11.7 15.3-.5 1.3-.3 1.7.7 1.3 2.3-.9 13.1 1.1 21 3.9 14.6 5.1 26.2 14.4 31.5 25.3 1.1 2.5 2.1 4.6 2.1 4.7 0 .1-29.5.2-65.5.3-62.4.2-65.5.1-65.5-1.6z" fill="#6dac37"/><g fill="#638d3c"><path d="M230.2 148.3c-5.4-4.9-15.2-18.5-15.2-21.3 0-.6 2.8-1 7.3-1 11.4 0 11.2-.1 12.6 9.3 1.6 12 1.5 14.7-.8 14.7-1 0-2.8-.8-3.9-1.7zM243 146.3c0-2.1-.3-7.5-.7-12l-.6-8.3H275v5.3c0 2.8-.3 8.2-.7 12l-.6 6.7H243v-3.7zM281.7 142.3c.3-4.3.9-9.6 1.2-11.8l.7-4 15.9-.3c8.7-.1 16.5 0 17.2.2.9.4.2 3.6-2.6 11.8l-3.8 11.3-14.6.3-14.5.3.5-7.8zM208.7 114.3c-1.4-3.7-3-10.8-4.1-18.5l-.5-3.8H231.8l.9 11.3c.4 6.1.7 12 .5 13-.4 1.5-1.8 1.7-11.7 1.7h-11.3l-1.5-3.7zM240.6 110.3c-.4-4.3-.9-10.2-1.2-13l-.5-5.3h38.9l-.5 8.8c-.2 4.8-.6 10.6-.9 13l-.5 4.2h-34.7l-.6-7.7zM284.4 107.3c1.1-17.2-1.8-15.3 23.7-15.3 12 0 21.9.3 21.9.8 0 1.2-6.8 20.9-8 23.1-1 2-1.9 2.1-19.7 2.1h-18.6l.7-10.7zM206 74.3c0-1 .9-3.8 2-6.2 5.1-11.2 14.1-19.2 26.8-23.8 7.2-2.6 8.4-2.6 13.7.7 2.7 1.5 6 2.5 10.1 2.8 5.7.4 6.3.2 9.7-2.8 2-1.7 4.1-2.9 4.7-2.5.5.3 1-.1 1-.9 0-.9.6-1.6 1.3-1.6.7 0 2.3-2.2 3.6-5 1.3-2.7 4.7-7.5 7.5-10.6 4.4-4.8 5.7-5.6 9.6-6.1l4.5-.6-7.1 7.4c-7.1 7.6-10.5 11.9-11.7 15.3-.5 1.3-.3 1.7.7 1.3 2.3-.9 13.1 1.1 21 3.9 14.6 5.1 26.2 14.4 31.5 25.3 1.1 2.5 2.1 4.6 2.1 4.7 0 .1-29.5.2-65.5.3-62.4.2-65.5.1-65.5-1.6z"/><path d="M265 28.1C253.9 16.7 241.2 11 226.1 11l-8.6-.1 3-2.4c6.8-5.6 21.6-5.6 33.1 0 6.1 3 13.6 10 16.2 15.2 2.2 4.3 3.7 11.3 2.5 11.2-.4 0-3.7-3.1-7.3-6.8z"/></g><path d="M212.8 75.3c-7.6-.4-7.7-.6-4.8-7.2 5.2-11.3 15.1-20 27.7-24.2l6.3-2.1 5.4 3.2c9.4 5.3 18.7 4.9 22.9-1 1-1.4 2-1.8 3.2-1.3 1.4.5 1.7.3 1.2-1-.4-1-.1-1.7.6-1.7s2.3-2.2 3.6-5c1.3-2.7 4.7-7.5 7.5-10.6 4.4-4.8 5.7-5.6 9.6-6.1l4.5-.6-7.1 7.4c-7.1 7.6-10.5 11.9-11.7 15.3-.5 1.3-.3 1.7.7 1.3 2.3-.9 13.1 1.1 21 3.9 9.8 3.4 19.7 9.7 24.9 15.7 5.2 6.1 9 13.4 7.3 14-1.4.5-113.7.5-122.8 0z" fill="#fc7773"/><g fill="#ce0700"><path d="M230.3 148.3c-4.9-4.3-15.3-18.4-15.3-20.8 0-.3 4.2-.5 9.4-.5h9.4l.6 6.3c1.3 13.7 1.2 16.1-.5 16.5-.9.1-2.5-.5-3.6-1.5zM243.6 145.8c-.3-2.4-.8-7.6-1.1-11.5l-.5-7.3h33.2l-.7 10.8c-.4 5.9-.9 11-1.2 11.5-.2.4-6.9.7-14.8.7h-14.4l-.5-4.2zM282 145.3c0-2.7.3-7.8.7-11.5l.6-6.8h16.8c11.1 0 16.9.4 16.9 1 0 1.7-6.2 19.4-7.3 20.8-.7.8-4.8 1.2-14.3 1.2H282v-4.7zM208.7 114.3c-1.4-3.7-3-10.8-4.1-18.5l-.5-3.8h13.4c7.4 0 13.6.3 13.8.8.3.4.8 6.2 1.2 13l.7 12.2h-23l-1.5-3.7zM240.5 107.3c-.3-6-.7-11.7-.8-12.8-.2-1.9.5-2 18.6-2.3L277 92v6.8c0 3.8-.3 9.7-.6 13.1l-.7 6.1h-34.5l-.7-10.7zM284.4 109.3c.4-4.9.9-10.7 1.2-13l.6-4.3h22c20.7 0 21.9.1 21.4 1.8-.4 1-2.3 6.7-4.4 12.7l-3.8 11-18.8.3-18.9.2.7-8.7zM212.8 75.3c-7.6-.4-7.7-.6-4.8-7.2 5.2-11.3 15.1-20 27.7-24.2l6.3-2.1 5.4 3.2c9.6 5.4 18.7 4.9 23.1-1.2 1.2-1.8 1.7-2 2.4-.9.6.9 1.1 1 1.5.2.4-.6.4-1.5.1-2.1-.3-.5 0-1 .7-1s2.4-2.2 3.7-5c1.3-2.7 4.7-7.5 7.5-10.6 4.4-4.8 5.7-5.6 9.6-6.1l4.5-.6-7.1 7.4c-7.1 7.6-10.5 11.9-11.7 15.3-.5 1.3-.3 1.7.7 1.3 2.3-.9 13.1 1.1 21 3.9 14.5 5 26.2 14.4 31.4 25.2l2 4.2-2.2.6c-1.3.3-4.2.4-6.7.2-4.4-.3-4.4-.3-5-4.6-.6-4.6-4.8-11.3-9.1-14.5-3-2.3-9.9-2.7-12.3-.7-3.2 2.6-1.8 6.4 4.5 12.2 3.3 3 6 6 6 6.6 0 .9-11.7 1.2-46.2 1-25.5-.1-49.3-.3-53-.5z"/></g><g fill="#b7000c"><path d="M230.2 148.3c-4.8-4.4-15.2-18.4-15.2-20.8 0-.3 4.2-.5 9.4-.5h9.3l.7 6.1c1.6 15.6.6 19.3-4.2 15.2zM243.6 143.3c-.4-3.8-.9-8.9-1.2-11.5l-.5-4.8h16.6c16.5 0 16.5 0 16.4 2.3-.1 1.6-.2 1.8-.6.5-.4-1.4-1.5-1.8-5.8-1.8h-5.4l1.5 4.4c.8 2.4 2.9 5.8 4.7 7.6l3.2 3.3.6-2.9c.6-2.4.7-2.1.8 1.8.2 8.1.7 7.8-15.4 7.8h-14.3l-.6-6.7zM282.1 145.8c.1-2.7.3-3.3.6-1.7.4 2.4.7 2.5 5.1 2.2 2.6-.2 6.2-.9 7.9-1.4 5.1-1.6 18-10.5 18.8-12.9.4-1.2.9-2 1.1-1.8.4.5-4.3 15.3-5.7 18.1-.9 1.5-2.6 1.7-14.4 1.7H282l.1-4.2zM300 128l-16.5-.6 16.8-.2c10.6-.1 16.7.2 16.7.8 0 .6-.1.9-.2.8-.2-.1-7.7-.5-16.8-.8zM208.7 114.3c-1.4-3.7-3-10.8-4.1-18.5l-.5-3.8h9.7c9.7 0 9.7 0 11 2.8.6 1.6 2.2 3.9 3.4 5.2 2.1 2.2 2.2 2.2 2.9.4.6-1.5.8-1.3.8 1.1.1 1.7.4 6 .8 9.8l.6 6.7h-23.1l-1.5-3.7zM241.7 117.4c-.4-.4-.7-2.9-.7-5.6 0-4.5.1-4.8 1.6-3.4.8.9 2.1 1.6 2.8 1.6.7 0 3.8 1.6 7 3.5 5.4 3.3 6.4 3.5 14.2 3.5 7.5 0 8.3-.2 8.7-2 .4-1.7.4-1.6.3.2-.1 2.3-.2 2.3-16.7 2.6-9.1.1-16.8-.1-17.2-.4zM293.3 117.3c5.4-.2 13.9-.2 19 0 5.1.1.7.3-9.8.3-10.4 0-14.6-.2-9.2-.3zM240.3 97c0-2.5.2-3.5.4-2.2.2 1.2.2 3.2 0 4.5-.2 1.2-.4.2-.4-2.3zM286.2 96c0-1.9.2-2.7.5-1.7.2.9.2 2.5 0 3.5-.3.9-.5.1-.5-1.8zM206 73.8c.1-2.3 4-10 7.6-14.9 4.2-5.8 13.6-12.1 22-14.9l6-2 6.8 3.5c9.1 4.7 15 4.8 20.1.4 2-1.8 3.8-2.9 4.2-2.5.3.3.1 2.4-.6 4.7-1.3 4.4-.8 5.6 2.4 5.9 4.8.5 5.2.1 5.7-5.1.7-7.3 1.9-8.1 9.7-6.8 20.2 3.2 38.1 14.7 44.9 28.7l2 4.2h-2.1c-1.1 0-1.8-.3-1.4-.6 1-1.1-2.9-7.7-7.7-13.1-5.5-6.1-12.9-9.6-20.1-9.5-2.7 0-9.8 1.2-15.6 2.6-5.9 1.4-12.1 2.6-13.8 2.6-1.7 0-7.9-1.6-13.8-3.7-13.5-4.5-19.5-4.8-27.5-1.1-7.5 3.5-14.4 12.8-15 20.3-.2 2.4-.5 2.5-7 2.5-4.8 0-6.8-.4-6.8-1.2z"/></g><g fill="#980414"><path d="M224.8 142.2c-5.5-6.7-9.8-13-9.8-14.4 0-.5 4.2-.8 9.4-.8h9.3l.6 6.8c.4 3.7.7 8.6.7 11 0 3.7-.3 4.2-2.3 4.2-1.6 0-3.9-2-7.9-6.8zM243.6 141.3c-.4-4.3-.8-9.3-1.1-11l-.4-3.3h10.3c9.2 0 10.2.2 10.3 1.9.4 5 6.4 13.9 10.3 15.3.5.2.7 1.3.4 2.6-.6 2.2-.9 2.2-14.9 2.2h-14.3l-.6-7.7zM282 148.1c0-.4 3-1 6.8-1.3 4.1-.3 8.4-1.3 11-2.7 6-3.1 14.2-9.1 14.2-10.4 0-.6.2-.8.5-.5.3.2-.7 3.9-2.1 8.1l-2.6 7.7h-13.9c-7.6 0-13.9-.4-13.9-.9zM208.7 114.3c-1.4-3.7-3-10.8-4.1-18.5l-.5-3.8H221.8l2.8 4.5c1.6 2.4 3.8 4.9 5 5.6 1.6.8 2.3 2.4 2.8 6.3 1.2 10.4 2.1 9.6-10.8 9.6h-11.4l-1.5-3.7zM241.6 115.8c-.3-1.3-.6-3.3-.6-4.5V109l5.6 2.5c3 1.3 6.7 3.3 8.1 4.5l2.6 2h-7.5c-7 0-7.6-.2-8.2-2.2zM206 73.8c.1-2.3 4-10 7.6-14.9 4.2-5.8 13.6-12.1 22.2-15 5.1-1.7 6.6-1.9 7.5-.9.9 1 .9 1.1 0 .6-2-1.1-10.7 3.2-14.8 7.5-2.5 2.5-4 4.9-4.1 6.8-.1 1.7-1.2 4.4-2.4 6.1-1.2 1.7-2.4 4.9-2.7 7l-.6 4h-6.3c-4.5 0-6.4-.4-6.4-1.2zM334 71.4c-.7-2.2-4-6.4-7.9-10.3-5.5-5.5-8-7.2-15.6-10.3-9.8-4.1-22.5-7.8-26.4-7.8-1.6 0-2.2-.3-1.5-1 1.3-1.3 11.9.5 20.8 3.6 9.8 3.4 19.7 9.7 24.9 15.7 4.5 5.3 9.2 13.7 7.7 13.7-.5 0-1.4-1.6-2-3.6zM267.8 54.8c-2.5-.9-3.3-1.9-2.9-4 0-.5-2-.9-4.6-.9l-4.8-.2 5-.8c2.8-.4 5.7-.8 6.5-1 3.5-.5 4.8.1 4.3 2.1-.9 3.3 1.6 5.3 5.9 4.7 2.1-.3 4.1-.1 4.4.4.7 1.2-10.4 1-13.8-.3z"/></g></svg>