<svg width="107" height="103" viewBox="0 0 107 103" fill="none" xmlns="http://www.w3.org/2000/svg">
<path d="M97.0958 20.9863V17.4246L93.9177 16.2739C93.4793 15.2328 93.2601 14.7397 92.8218 13.6986L94.2465 10.6301C92.9862 9.36983 92.9862 9.36984 91.7259 8.10957L88.6574 9.53421C87.6163 9.09586 87.1232 8.87668 86.0821 8.43832L84.9314 5.26025H81.3698L80.2191 8.43832C79.178 8.87668 78.6848 9.09586 77.6437 9.53421L74.5753 8.10957C73.315 9.36984 73.315 9.36983 72.0547 10.6301L73.4794 13.6986C73.041 14.7397 72.8218 15.2328 72.3835 16.2739L69.2054 17.4246V20.9863L72.3835 22.1369C72.8218 23.178 73.041 23.6712 73.4794 24.7123L72.0547 27.7808C73.315 29.041 73.315 29.041 74.5753 30.3013L77.6437 28.8767C78.6848 29.315 79.178 29.5342 80.2191 29.9726L81.3698 33.1506H84.9314L86.0821 29.9726C87.1232 29.5342 87.6163 29.315 88.6574 28.8767L91.7259 30.3013C92.9862 29.041 92.9862 29.041 94.2465 27.7808L92.8218 24.7123C93.2601 23.6712 93.4793 23.178 93.9177 22.1369L97.0958 20.9863Z" fill="#DEDEDD"/>
<path d="M89.9726 3.61644L88.8767 0.547943H85.4794L84.3835 3.61644L81.9178 4.65753L78.9589 3.28767L76.5479 5.69862L77.9726 8.60273L76.9315 11.1233L73.863 12.1644V15.6164L76.9315 16.7123L77.9726 19.1781L76.5479 22.0822L78.9589 24.5479L81.9178 23.1233L84.3835 24.1644L85.4794 27.2328H88.8767L89.9726 24.1644L92.4931 23.1233L95.3972 24.5479L97.8082 22.0822L96.4383 19.1781L97.4794 16.7123L100.493 15.6164V12.1644L97.4794 11.1233L96.4383 8.60273L97.8082 5.69862L95.3972 3.28767L92.4931 4.65753L89.9726 3.61644Z" fill="white"/>
<path d="M95.5069 25.2054L92.4384 23.726L90.1919 24.6575L89.7535 23.6712L92.4932 22.5205L95.2877 23.8356L97.1507 21.9726L95.8356 19.1781L97.0412 16.274L99.9452 15.2329V12.6027L97.0412 11.5616L95.8356 8.60273L97.1507 5.80821L95.2877 3.94521L92.4932 5.26027L89.5343 4.05479L88.4932 1.15069H85.8631L84.822 4.05479L83.4521 4.60273L83.0138 3.61644L83.9453 3.23287L85.0959 0H89.3152L90.411 3.23287L92.4384 4.05479L95.5069 2.57535L98.4658 5.58904L97.0412 8.60273L97.8631 10.6301L101.041 11.7808V16L97.8631 17.1507L97.0412 19.1781L98.4658 22.2465L95.5069 25.2054Z" fill="#475059"/>
<path d="M88.8767 27.7808H85.0959L83.9452 24.6027L81.9178 23.726L78.8493 25.2054L75.8904 22.2465L77.3699 19.1781L76.4932 17.1507L73.3151 16V11.7808L76.4932 10.6301L77.3699 8.60274L75.8904 5.58904L78.8493 2.57535L80.6028 3.39726L80.1096 4.43836L79.0685 3.94521L77.2055 5.80822L78.5753 8.60274L77.3699 11.5616L74.411 12.6027V15.2329L77.3699 16.274L78.5753 19.1781L77.2055 21.9726L79.0685 23.8356L81.9178 22.5205L84.8219 23.726L85.863 26.6849H88.8767V27.7808Z" fill="#475059"/>
<path d="M87.178 19.7808C84.1643 19.7808 81.7534 17.3151 81.7534 14.3562C81.7534 11.3973 84.2191 8.93152 87.178 8.93152C90.1369 8.93152 92.6027 11.3973 92.6027 14.3562C92.6027 17.3151 90.1917 19.7808 87.178 19.7808ZM87.178 10.0274C84.7671 10.0274 82.8492 11.9452 82.8492 14.3562C82.8492 16.7671 84.7671 18.6849 87.178 18.6849C89.589 18.6849 91.5068 16.7671 91.5068 14.3562C91.5068 11.9452 89.589 10.0274 87.178 10.0274Z" fill="#475059"/>
<path d="M87.1781 16.6027C88.4189 16.6027 89.4247 15.5969 89.4247 14.3561C89.4247 13.1154 88.4189 12.1096 87.1781 12.1096C85.9374 12.1096 84.9316 13.1154 84.9316 14.3561C84.9316 15.5969 85.9374 16.6027 87.1781 16.6027Z" fill="#E50B5B"/>
<path d="M87.178 22.5205C82.6849 22.5205 79.0136 18.8493 79.0136 14.3562C79.0136 9.86303 82.6849 6.1918 87.178 6.1918C91.6711 6.1918 95.3424 9.86303 95.3424 14.3562C95.3424 18.8493 91.6711 22.5205 87.178 22.5205ZM87.178 7.83564C83.6164 7.83564 80.6574 10.7397 80.6574 14.3562C80.6574 17.9726 83.5616 20.8767 87.178 20.8767C90.7944 20.8767 93.6985 17.9726 93.6985 14.3562C93.6985 10.7397 90.7944 7.83564 87.178 7.83564Z" fill="#DEDEDD"/>
<path d="M81.7533 5.04111C82.0559 5.04111 82.3013 4.79579 82.3013 4.49317C82.3013 4.19054 82.0559 3.94522 81.7533 3.94522C81.4507 3.94522 81.2054 4.19054 81.2054 4.49317C81.2054 4.79579 81.4507 5.04111 81.7533 5.04111Z" fill="#475059"/>
<path d="M89.2054 25.9726C89.508 25.9726 89.7534 25.7272 89.7534 25.4246C89.7534 25.122 89.508 24.8767 89.2054 24.8767C88.9028 24.8767 88.6575 25.122 88.6575 25.4246C88.6575 25.7272 88.9028 25.9726 89.2054 25.9726Z" fill="#475059"/>
<path d="M19.5616 69.315L22.7397 75.0136L25.9177 69.315L22.7397 66.63L19.5616 69.315Z" fill="#FFC0CC"/>
<path d="M80.8218 69.315L83.9998 75.0136L87.1779 69.315L83.9998 66.63L80.8218 69.315Z" fill="#FFC0CC"/>
<path d="M22.5753 16.6027C22.4109 16.6027 22.2465 16.6027 22.0821 16.6027C18.1917 16.3288 15.2328 12.9315 15.5068 9.04109C15.6164 7.23288 16.4383 5.58904 17.7533 4.32877C19.0684 3.12329 20.7671 2.46576 22.5753 2.46576C22.7397 2.46576 22.9041 2.46576 23.0684 2.46576C24.9315 2.57535 26.6848 3.45206 27.8903 4.87671C29.1506 6.30137 29.7534 8.1096 29.589 10.0274C29.4794 11.8356 28.6574 13.4794 27.3424 14.7397C26.0821 15.9452 24.3835 16.6027 22.5753 16.6027ZM22.5753 3.56165C19.452 3.56165 16.8766 5.97261 16.6575 9.09589C16.4383 12.3836 18.9041 15.2329 22.1918 15.452C22.3561 15.452 22.4657 15.452 22.6301 15.452C25.7534 15.452 28.3287 13.0411 28.5479 9.91781C28.6575 8.32877 28.1643 6.79453 27.1233 5.58905C26.0822 4.38357 24.6575 3.67124 23.0137 3.56165C22.8493 3.56165 22.7397 3.56165 22.5753 3.56165Z" fill="#475059"/>
<path d="M22.5753 16.6027C20.2739 16.6027 18.5205 13.4794 18.5205 9.53424C18.5205 5.58904 20.3287 2.46576 22.5753 2.46576C24.8767 2.46576 26.6301 5.58904 26.6301 9.53424C26.6301 13.4794 24.8767 16.6027 22.5753 16.6027ZM22.5753 3.56165C21.863 3.56165 21.1507 4.16439 20.6027 5.20548C20 6.35616 19.6164 7.89041 19.6164 9.53424C19.6164 11.1781 19.9452 12.7123 20.6027 13.863C21.1507 14.9041 21.863 15.5068 22.5753 15.5068C23.2876 15.5068 24 14.9041 24.5479 13.863C25.1506 12.7123 25.5342 11.1781 25.5342 9.53424C25.5342 7.89041 25.2054 6.35616 24.5479 5.20548C24 4.16439 23.2876 3.56165 22.5753 3.56165Z" fill="#475059"/>
<path d="M29.041 8.71234H16.2739V9.80823H29.041V8.71234Z" fill="#475059"/>
<path d="M23.178 2.8493H22.0822V15.6164H23.178V2.8493Z" fill="#475059"/>
<path d="M97.1505 87.9451H66.3013C64.767 87.9451 63.5067 86.6848 63.5067 85.1506C63.5067 83.6163 64.767 82.4109 66.2464 82.4109H97.0957L103.123 85.2054L97.1505 87.9451ZM66.3013 83.5067C65.4246 83.5067 64.6575 84.2191 64.6575 85.1506C64.6575 86.0821 65.4246 86.7944 66.3013 86.8492H96.9313L100.548 85.2054L96.9313 83.5615H66.3013V83.5067Z" fill="#475059"/>
<path d="M70.3561 82.9588H69.2603V87.3972H70.3561V82.9588Z" fill="#475059"/>
<path d="M96.4383 84.6027H69.8082V85.6985H96.4383V84.6027Z" fill="#475059"/>
<path d="M27.1233 24.274C28.0311 24.274 28.7671 23.538 28.7671 22.6301C28.7671 21.7223 28.0311 20.9863 27.1233 20.9863C26.2154 20.9863 25.4794 21.7223 25.4794 22.6301C25.4794 23.538 26.2154 24.274 27.1233 24.274Z" fill="#FFD15D"/>
<path d="M65.1506 63.8903L53.4794 74.2465L60.9862 80.8766L66.5205 70.904L65.1506 63.8903Z" fill="#DEDEDD"/>
<path d="M47.726 102.027L53.2602 87.6163L58.8492 102.027H47.726Z" fill="#FFC0CC"/>
<path d="M62.9589 60.3835L66.5753 62.6301L62.9589 66.4109V60.3835Z" fill="#DEDEDD"/>
<path d="M43.5617 60.3835L39.9453 62.6301L43.5617 66.4109V60.3835Z" fill="#DEDEDD"/>
<path d="M63.0684 66.3561L63.0136 53.2602C60.9862 56.4383 58.0273 59.3972 52.9862 59.8903L63.0684 66.3561Z" fill="#DEDEDD"/>
<path d="M63.5068 53.4794H62.4109V65.5889H63.5068V53.4794Z" fill="#475059"/>
<path d="M44.1097 54.3013H43.0138V65.8081H44.1097V54.3013Z" fill="#475059"/>
<path d="M60.4931 102.575C60.7958 102.575 61.0411 102.33 61.0411 102.027C61.0411 101.725 60.7958 101.479 60.4931 101.479C60.1905 101.479 59.9452 101.725 59.9452 102.027C59.9452 102.33 60.1905 102.575 60.4931 102.575Z" fill="#475059"/>
<path d="M39.5104 63.0874L60.5927 81.3472L61.3102 80.5188L40.2279 62.2591L39.5104 63.0874Z" fill="#475059"/>
<path d="M45.2573 80.4727L45.9747 81.3012L67.0598 63.0442L66.3424 62.2157L45.2573 80.4727Z" fill="#475059"/>
<path d="M58.8493 102.63H13.863V87.7259C13.863 84.8218 14.7397 82.0273 16.3288 79.6711C17.9178 77.2602 20.2192 75.452 22.8493 74.3561L26.2466 72.9862L38.3013 68.2191L39.3972 62.3013L43.2328 59.9451L43.8356 60.8766L40.4383 62.9588L39.2877 68.9862L26.6302 73.9725L23.2329 75.3424C18.1918 77.3698 14.9041 82.2465 14.9041 87.6711V101.425H58.7397V102.63H58.8493Z" fill="#475059"/>
<path d="M92.7123 102.63H62.1918V101.534H91.6164V87.7259C91.6164 82.3013 88.3288 77.4246 83.2877 75.3972L67.2877 69.041L66.0822 62.9588L62.6849 60.8766L63.2877 59.9451L67.1233 62.3013L68.274 68.2191L83.6712 74.3561C86.3562 75.452 88.6027 77.2602 90.1918 79.6711C91.7808 82.0821 92.6575 84.8218 92.6575 87.7259V102.63H92.7123Z" fill="#475059"/>
<path d="M47.726 81.4793L53.2602 91.5067L58.8492 81.4793L53.2602 76.767L47.726 81.4793Z" fill="#FFC0CC"/>
<path d="M44.9316 78.1368C45.2342 78.1368 45.4795 77.8915 45.4795 77.5889C45.4795 77.2863 45.2342 77.041 44.9316 77.041C44.6289 77.041 44.3836 77.2863 44.3836 77.5889C44.3836 77.8915 44.6289 78.1368 44.9316 78.1368Z" fill="#475059"/>
<path d="M61.589 78.1368C61.8916 78.1368 62.137 77.8915 62.137 77.5889C62.137 77.2863 61.8916 77.041 61.589 77.041C61.2864 77.041 61.0411 77.2863 61.0411 77.5889C61.0411 77.8915 61.2864 78.1368 61.589 78.1368Z" fill="#475059"/>
<path d="M54.4658 13.3151C58.5206 14.0822 61.6439 20.2192 61.6987 27.6712L60.7124 42.5753C59.7261 51.9451 56.6029 56.7671 54.5207 57.9725C58.2467 56.7671 64.0001 51.9451 65.8083 42.5753L67.6165 27.6712C67.4521 20.2192 61.8083 14.0822 54.4658 13.3151Z" fill="#DEDEDD"/>
<path d="M53.0411 60.4931C49.3699 60.4931 40.4384 56.1095 37.9727 43.0684C36.0549 41.0958 34.7946 38.8493 34.411 36.7671C34.0275 34.8493 34.7946 32.8767 36.3288 31.6712V27.7808C36.3288 25.0959 36.9864 22.4109 38.2466 20.0548L39.233 20.5479C38.0823 22.7945 37.4795 25.2602 37.4795 27.7808V32.2739L37.2604 32.4383C35.9453 33.3698 35.2877 35.0137 35.5617 36.6027C35.8905 38.5753 37.096 40.6575 38.959 42.4657L39.1233 42.6301V42.8493C40.4384 49.7534 43.5617 53.7533 45.9179 55.8903C48.6028 58.3013 51.5069 59.3972 53.1508 59.3972C55.4521 59.3972 58.4658 57.8081 60.9863 55.2876C63.1781 53.0958 66.0274 49.0958 67.2329 42.7397L67.2877 42.5753L67.3973 42.4657C69.2055 40.6575 70.411 38.5753 70.7398 36.6575C71.0685 35.0684 70.411 33.4246 69.0959 32.4383L68.8768 32.2739V27.7808C68.8768 19.1781 61.8631 12.1644 53.2603 12.1644H53.2056C48.7124 12.1644 44.4384 14.137 41.4795 17.4794L40.6576 16.7671C43.8357 13.1507 48.4384 11.0685 53.2603 11.0685H53.3151C57.8083 11.0685 61.9726 12.8219 65.1507 15.9452C68.3288 19.1233 70.0274 23.2876 70.0274 27.7808V31.726C71.5617 32.9315 72.274 34.9589 71.8904 36.8767C71.5069 38.9589 70.2466 41.2054 68.3288 43.178C67.0685 49.6986 64.1096 53.8081 61.863 56.1095C60.4932 57.5342 58.9589 58.6301 57.4247 59.452C55.7261 60.1095 54.3014 60.4931 53.0411 60.4931Z" fill="#475059"/>
<path d="M39.6713 19.2328C39.9739 19.2328 40.2192 18.9875 40.2192 18.6849C40.2192 18.3823 39.9739 18.1369 39.6713 18.1369C39.3687 18.1369 39.1234 18.3823 39.1234 18.6849C39.1234 18.9875 39.3687 19.2328 39.6713 19.2328Z" fill="#475059"/>
<path d="M29.5341 60.9862L22.8492 66.4109L27.452 69.7533L29.4794 65.041L29.5341 60.9862Z" fill="#DEDEDD"/>
<path d="M17.2053 57.6985L14.5753 59.7807L17.2053 61.9177V57.6985Z" fill="#DEDEDD"/>
<path d="M28.3287 61.9177L28.2739 54.4657C27.1232 56.2739 25.4246 57.9725 22.5753 58.2465L28.3287 61.9177Z" fill="#DEDEDD"/>
<path d="M28.8218 54.5204H27.7259V61.9177H28.8218V54.5204Z" fill="#475059"/>
<path d="M16.6423 55.0126L16.6557 61.9167L17.7516 61.9146L17.7382 55.0105L16.6423 55.0126Z" fill="#475059"/>
<path d="M14.1604 60.1839L26.7806 70.6317L27.4795 69.7875L14.8592 59.3397L14.1604 60.1839Z" fill="#475059"/>
<path d="M18.0301 69.7389L18.7288 70.5832L31.3507 60.1371L30.652 59.2928L18.0301 69.7389Z" fill="#475059"/>
<path d="M12.8767 93.6985H0V74.0821C0 72.3834 0.493137 70.7396 1.42464 69.3697C2.35615 67.9451 3.72601 66.904 5.26025 66.2464L13.9177 62.7944L14.0274 59.5067L16.8219 57.2602L17.5342 58.1369L15.1233 60.0547L15.0136 63.5615L5.69857 67.2328C2.90405 68.3834 1.09589 71.0684 1.09589 74.0821V92.6026H12.8767V93.6985Z" fill="#475059"/>
<path d="M37.4246 66.0821L30.4657 63.6163L30.3561 60.0547L27.9452 58.0821L28.6575 57.2602L31.452 59.5067L31.5616 62.7944L37.8082 65.041L37.4246 66.0821Z" fill="#475059"/>
<path d="M22.6302 58.7944C21.5891 58.7944 19.7261 58.1917 17.9178 56.5479C16.4932 55.2328 14.5754 52.8218 13.8083 48.7122C12.7672 47.7259 12.0549 46.4657 11.7809 45.041C11.5617 43.8903 12.0001 42.7396 12.8768 41.9725V39.8355C12.8768 36.0547 14.7398 33.6986 16.3288 32.4383C18.137 30.9588 20.5479 30.0273 22.6849 30.0273C25.3151 30.0273 27.7809 31.0684 29.6439 32.8766C31.5069 34.7397 32.4931 37.2054 32.5479 39.7807V41.9177C33.4246 42.6848 33.863 43.8903 33.589 45.041C33.2603 46.4109 32.548 47.6711 31.5617 48.7122C30.7945 52.4383 29.0959 54.7944 27.7808 56.1643C26.0822 57.8081 24.2192 58.7944 22.6302 58.7944ZM14.8494 48.4383C15.6165 52.2739 17.3151 54.5205 18.6302 55.7259C20.1096 57.0958 21.6987 57.6985 22.5754 57.6985C23.5617 57.6985 25.2055 57.0958 26.8494 55.3972C28.0548 54.1369 29.6438 51.9451 30.3562 48.3287L30.411 48.1643L30.5206 48.0547C31.4521 47.178 32.0548 46.0821 32.3836 44.8218C32.548 43.9999 32.2192 43.178 31.5617 42.6848L31.3425 42.5205V39.8355C31.3425 35.0684 27.3973 31.178 22.6302 31.178C19.1233 31.178 13.9178 33.9177 13.9178 39.8903V42.5753L13.6987 42.7396C13.0412 43.2328 12.6575 44.0547 12.8219 44.8766C13.0959 46.1369 13.7535 47.2328 14.685 48.1095L14.8494 48.2739V48.4383Z" fill="#475059"/>
<path d="M26.9588 48.3287C26.5752 51.9999 25.589 54.4109 24.6575 55.8355C26.4657 54.6849 28.493 52.2191 29.2602 48.1643C29.7533 45.4246 30.0273 42.6301 30.1917 39.8356C30.1369 36.7123 28.2191 33.9178 25.315 32.7671C26.63 34.1917 27.5068 36.8219 27.5068 39.7808L26.9588 48.3287Z" fill="#DEDEDD"/>
<path d="M90.5205 60.9862L83.8904 66.4109L88.4383 69.7533L90.4657 65.041L90.5205 60.9862Z" fill="#DEDEDD"/>
<path d="M89.3699 57.6985L92 59.7807L89.3699 61.9177V57.6985Z" fill="#DEDEDD"/>
<path d="M89.3699 61.9177L89.3151 54.4657C88.1644 56.2739 86.4658 57.9725 83.6165 58.2465L89.3699 61.9177Z" fill="#DEDEDD"/>
<path d="M78.8494 54.5204H77.7535V61.9177H78.8494V54.5204Z" fill="#475059"/>
<path d="M89.9178 55.0136H88.8219V61.9177H89.9178V55.0136Z" fill="#475059"/>
<path d="M79.0993 69.7451L79.7986 70.5889L92.4139 60.1346L91.7146 59.2908L79.0993 69.7451Z" fill="#475059"/>
<path d="M75.2718 60.1731L87.892 70.6209L88.5909 69.7767L75.9706 59.3289L75.2718 60.1731Z" fill="#475059"/>
<path d="M93.8082 93.6985V92.6026H105.479V74.0821C105.479 71.0684 103.671 68.3834 100.877 67.2328L91.5617 63.5615L91.452 60.0547L89.0411 58.1369L89.7534 57.2602L92.5479 59.5067L92.6576 62.7944L101.315 66.2464C102.904 66.904 104.219 67.9451 105.151 69.3697C106.082 70.7944 106.575 72.4382 106.575 74.0821V93.6985H93.8082Z" fill="#475059"/>
<path d="M69.3699 66.356L68.9315 65.315L75.0137 62.8492L75.1233 59.5067L77.9726 57.2602L78.6302 58.0821L76.2192 60.0547L76.1096 63.5615L69.3699 66.356Z" fill="#475059"/>
<path d="M83.9451 58.7944C82.3561 58.7944 80.4931 57.8081 78.8492 56.1643C77.5342 54.8492 75.8356 52.4383 75.0685 48.7122C74.0274 47.7259 73.3698 46.4657 73.041 45.041C72.8219 43.8903 73.2054 42.6848 74.0821 41.9177V39.7807C74.0821 37.1506 75.1233 34.6849 76.9863 32.8766C78.8493 31.0136 81.315 30.0273 83.9451 30.0273C86.1369 30.0273 88.4931 30.9041 90.3013 32.4383C91.8903 33.7534 93.7534 36.0547 93.7534 39.8355V41.9725C94.6301 42.7396 95.0684 43.8903 94.8493 45.041C94.5205 46.4657 93.8081 47.7259 92.8218 48.7122C91.9999 52.8218 90.1369 55.2328 88.7122 56.5479C86.8492 58.1917 84.9862 58.7944 83.9451 58.7944ZM74.1917 44.8218C74.4657 46.0273 75.1232 47.178 76.0547 48.0547L76.1644 48.1643L76.2191 48.3287C76.8767 51.8903 78.4657 54.1369 79.726 55.3972C81.3698 57.0958 83.0136 57.6985 83.9999 57.6985C84.8766 57.6985 86.4657 57.0958 87.9452 55.7259C89.2602 54.5205 91.0136 52.2739 91.7259 48.4383V48.2191L91.8903 48.0547C92.8218 47.178 93.4794 46.0821 93.7534 44.8218C93.9177 43.9999 93.589 43.178 92.8767 42.6848L92.6575 42.5205V39.8355C92.6575 33.9177 87.452 31.1232 83.9451 31.1232C79.1232 31.1232 75.2328 35.0136 75.2328 39.8355V42.5205L75.0136 42.6848C74.3561 43.178 74.0273 43.9999 74.1917 44.8218Z" fill="#475059"/>
<path d="M88.2738 48.3287C87.8903 51.9999 86.9039 54.4109 85.9724 55.8355C87.7806 54.6849 89.808 52.2191 90.5752 48.1643C91.0683 45.4246 91.3423 42.6301 91.5067 39.8356C91.4519 36.7123 89.5341 33.9178 86.63 32.7671C87.9451 34.1917 88.8218 36.8219 88.8218 39.7808L88.2738 48.3287Z" fill="#DEDEDD"/>
<path d="M9.58905 17.0959H8.49316V19.3425H9.58905V17.0959Z" fill="#475059"/>
<path d="M9.58905 22.6301H8.49316V24.8767H9.58905V22.6301Z" fill="#475059"/>
<path d="M12.9315 20.4384H10.6849V21.5342H12.9315V20.4384Z" fill="#475059"/>
<path d="M7.39726 20.4384H5.15063V21.5342H7.39726V20.4384Z" fill="#475059"/>
<path d="M30.7397 87.6163H29.6438V89.8629H30.7397V87.6163Z" fill="#475059"/>
<path d="M30.7396 93.1505H29.6437V95.3971H30.7396V93.1505Z" fill="#475059"/>
<path d="M34.137 90.9587H31.8904V92.0546H34.137V90.9587Z" fill="#475059"/>
<path d="M28.6026 90.9588H26.3561V92.0547H28.6026V90.9588Z" fill="#475059"/>
<path d="M102.411 44.4383H101.315V46.6849H102.411V44.4383Z" fill="#475059"/>
<path d="M102.411 49.9725H101.315V52.2191H102.411V49.9725Z" fill="#475059"/>
<path d="M105.754 47.726H103.507V48.8218H105.754V47.726Z" fill="#475059"/>
<path d="M100.219 47.726H97.9725V48.8218H100.219V47.726Z" fill="#475059"/>
</svg>
