<svg width="52" height="52" viewBox="0 0 52 52" fill="none" xmlns="http://www.w3.org/2000/svg"><g opacity=".1" stroke="#040507" stroke-width="1.5"><path d="M42.25 8.126H9.75a4.875 4.875 0 00-4.875 4.875v26a4.875 4.875 0 004.875 4.875h32.5a4.875 4.875 0 004.875-4.875v-26a4.875 4.875 0 00-4.875-4.875z" stroke-linejoin="round"/><path d="M34.125 21.125a3.25 3.25 0 100-6.5 3.25 3.25 0 000 6.5z" stroke-miterlimit="10"/><path d="M30.875 34.102l-9.208-9.19a3.25 3.25 0 00-4.455-.132L4.875 35.749M22.75 43.875L35.277 31.35a3.25 3.25 0 014.378-.203l7.47 6.23" stroke-linecap="round" stroke-linejoin="round"/></g></svg>