<svg width="107" height="103" viewBox="0 0 107 103" fill="none" xmlns="http://www.w3.org/2000/svg">
<path d="M6.10315 27.0896C6.10315 25.3229 6.10315 25.3229 6.10315 23.5562L9.26183 22.4319C9.69013 21.4147 9.90427 20.8793 10.3326 19.8621L8.88707 16.8105C10.1184 15.5792 10.1184 15.5792 11.4033 14.2943L14.4549 15.7398C15.4721 15.3115 16.0075 15.0974 17.0247 14.6691L18.1489 11.5104C19.9156 11.5104 19.9157 11.5104 21.6824 11.5104L22.8066 14.6691C23.8238 15.0974 24.3592 15.3115 25.3764 15.7398L28.428 14.2943C29.6593 15.5257 29.6593 15.5257 30.9442 16.8105L29.4987 19.8621C29.927 20.8793 30.1412 21.4147 30.5695 22.4319L33.7281 23.5562C33.7281 25.3229 33.7281 25.3229 33.7281 27.0896L30.5695 28.2139C30.1412 29.2311 29.927 29.7664 29.4987 30.7836L30.9442 33.8352C29.7129 35.0666 29.7129 35.0666 28.428 36.3515L25.3764 34.906C24.3592 35.3343 23.8238 35.5484 22.8066 35.9767L21.6824 39.1354C19.9157 39.1354 19.9156 39.1354 18.1489 39.1354L17.0247 35.9767C16.0075 35.5484 15.4721 35.3343 14.4549 34.906L11.4033 36.3515C10.172 35.1201 10.172 35.1201 8.88707 33.8352L10.3326 30.7836C9.90427 29.7664 9.69013 29.2311 9.26183 28.2139L6.10315 27.0896Z" fill="#DEDEDD"/>
<path d="M13.9731 10.7609L15.0438 7.70929H18.4702L19.541 10.7609L22.0036 11.7781L24.9482 10.3861L27.3573 12.7953L25.9654 15.7398L26.9825 18.2025L30.0341 19.2732V22.6996L26.9825 23.7703L25.9654 26.233L27.3573 29.1775L24.9482 31.5867L22.0036 30.1947L19.541 31.2119L18.4702 34.2635H15.0438L13.9731 31.2119L11.4569 30.1947L8.56591 31.5867L6.15676 29.1775L7.5487 26.233L6.53149 23.7703L3.47992 22.6996V19.2732L6.53149 18.2025L7.5487 15.7398L6.15676 12.7953L8.56591 10.3861L11.4569 11.7781L13.9731 10.7609Z" fill="white"/>
<path d="M18.8449 34.8524H14.669L13.5448 31.6402L11.5104 30.7837L8.45877 32.2292L5.51425 29.2846L6.95974 26.233L6.10314 24.1986L2.89093 23.0744V18.8985L6.10314 17.7742L6.95974 15.7398L5.51425 12.6882L8.45877 9.74371L11.5104 11.1892L13.5448 10.3326L14.669 7.12039H18.8449L19.9692 10.3326L22.0036 11.1892L25.0552 9.74371L27.9997 12.6882L26.5542 15.7398L27.4108 17.7742L30.623 18.8985V23.0744L27.4108 24.1986L26.5542 26.233L27.9997 29.2846L25.0552 32.2292L22.0036 30.7837L19.9692 31.6402L18.8449 34.8524ZM15.4185 33.7282H18.0418L19.059 30.8372L22.0036 29.6058L24.7875 30.9443L26.6613 29.0705L25.3229 26.2866L26.5542 23.342L29.4452 22.3248V19.7015L26.5542 18.6843L25.3229 15.7398L26.6613 12.9559L24.7875 11.0821L22.0036 12.4205L19.059 11.1892L18.0418 8.29821H15.4185L14.4013 11.1892L11.4568 12.4205L8.67289 11.0821L6.79911 12.9559L8.13753 15.7398L6.90619 18.6843L4.01522 19.7015V22.3248L6.90619 23.342L8.13753 26.2866L6.79911 29.0705L8.67289 30.9443L11.4568 29.6058L14.4013 30.8372L15.4185 33.7282Z" fill="#475059"/>
<path d="M16.757 26.3936C13.759 26.3936 11.3498 23.9845 11.3498 20.9864C11.3498 17.9884 13.759 15.5792 16.757 15.5792C19.7551 15.5792 22.1642 17.9884 22.1642 20.9864C22.1642 23.9845 19.7551 26.3936 16.757 26.3936ZM16.757 16.6499C14.4014 16.6499 12.4205 18.5773 12.4205 20.9864C12.4205 23.3956 14.3479 25.3229 16.757 25.3229C19.1126 25.3229 21.0935 23.3956 21.0935 20.9864C21.0935 18.5773 19.1126 16.6499 16.757 16.6499Z" fill="#475059"/>
<path d="M16.757 23.1814C17.9692 23.1814 18.952 22.1987 18.952 20.9864C18.952 19.7742 17.9692 18.7914 16.757 18.7914C15.5447 18.7914 14.562 19.7742 14.562 20.9864C14.562 22.1987 15.5447 23.1814 16.757 23.1814Z" fill="#E50B5B"/>
<path d="M16.757 29.124C12.26 29.124 8.61945 25.4835 8.61945 20.9864C8.61945 16.4893 12.26 12.8488 16.757 12.8488C21.2541 12.8488 24.8946 16.4893 24.8946 20.9864C24.8946 25.4835 21.2541 29.124 16.757 29.124ZM16.757 14.5085C13.1701 14.5085 10.2791 17.3994 10.2791 20.9864C10.2791 24.5734 13.1701 27.4643 16.757 27.4643C20.344 27.4643 23.235 24.5734 23.235 20.9864C23.235 17.3994 20.2905 14.5085 16.757 14.5085Z" fill="#DEDEDD"/>
<path d="M90.9589 22.3784C95.5419 22.3784 99.2571 18.6631 99.2571 14.0802C99.2571 9.49718 95.5419 5.78195 90.9589 5.78195C86.3759 5.78195 82.6607 9.49718 82.6607 14.0802C82.6607 18.6631 86.3759 22.3784 90.9589 22.3784Z" fill="#DEDEDD"/>
<path d="M66.1909 49.933L65.3906 49.1433L36.7738 78.1431L37.5741 78.9328L66.1909 49.933Z" fill="#DEDEDD"/>
<path d="M65.2613 16.2216C47.4336 16.2216 32.8716 30.2483 32.015 47.8619H39.1354C39.992 34.21 51.3418 23.3956 65.2078 23.3956C79.6627 23.3956 91.3337 35.1201 91.3337 49.5215C91.3337 63.9765 79.6092 75.6475 65.2078 75.6475C50.7529 75.6475 39.0818 63.9765 39.0818 49.5215H31.9614C31.9614 67.8846 46.8447 82.7679 65.2613 82.7679C83.6244 82.7679 98.5612 67.8846 98.5612 49.468C98.5076 31.1049 83.6244 16.2216 65.2613 16.2216Z" fill="#E50B5B"/>
<path d="M65.2613 30.4624C55.3035 30.4624 47.1659 38.1182 46.3093 47.8083H53.4832C54.2863 42.0264 59.2652 37.5828 65.2613 37.5828C71.8463 37.5828 77.1465 42.883 77.1465 49.468C77.1465 56.053 71.8463 61.3532 65.2613 61.3532C58.7298 61.3532 53.3761 56.053 53.3761 49.5215H46.2557C46.2557 60.0147 54.7681 68.5271 65.2613 68.5271C75.7545 68.5271 84.2668 60.0147 84.2668 49.5215C84.2668 39.0283 75.7545 30.4624 65.2613 30.4624Z" fill="#E50B5B"/>
<path d="M68.0453 89.8882H62.531V98.7218H68.0453V89.8882Z" fill="#DEDEDD"/>
<path d="M65.4754 54.2863C68.1069 54.2863 70.2402 52.153 70.2402 49.5215C70.2402 46.89 68.1069 44.7567 65.4754 44.7567C62.8439 44.7567 60.7106 46.89 60.7106 49.5215C60.7106 52.153 62.8439 54.2863 65.4754 54.2863Z" fill="#E50B5B"/>
<path d="M26.233 61.9956C25.1623 58.7298 24.5199 55.25 24.3593 51.8236L25.4835 51.7701C25.6977 55.1429 26.2866 58.5157 27.3038 61.6744L26.233 61.9956Z" fill="#475059"/>
<path d="M65.2613 90.4771C52.5731 90.4771 40.795 84.7487 32.9786 74.7373L33.8352 74.0414C41.4374 83.785 52.8943 89.3529 65.2613 89.3529C87.2114 89.3529 105.093 71.4716 105.093 49.5215C105.093 27.5714 87.2114 9.69016 65.2613 9.69016C43.3112 9.69016 25.43 27.5714 25.43 49.5215H24.3057C24.3057 26.929 42.6688 8.56589 65.2613 8.56589C87.8538 8.56589 106.217 26.929 106.217 49.5215C106.217 72.114 87.8003 90.4771 65.2613 90.4771Z" fill="#475059"/>
<path d="M96.2056 17.6671C91.3337 17.6671 87.372 13.7054 87.372 8.83357C87.372 3.96172 91.3337 0 96.2056 0C101.077 0 105.039 3.96172 105.039 8.83357C105.039 13.7054 101.077 17.6671 96.2056 17.6671ZM96.2056 1.07074C91.9226 1.07074 88.4427 4.55063 88.4427 8.83357C88.4427 13.1165 91.9226 16.5964 96.2056 16.5964C100.489 16.5964 103.968 13.1165 103.968 8.83357C103.968 4.55063 100.489 1.07074 96.2056 1.07074Z" fill="#475059"/>
<path d="M96.2056 17.6671C93.3681 17.6671 91.1732 13.759 91.1732 8.83357C91.1732 3.90818 93.3681 0 96.2056 0C99.043 0 101.238 3.90818 101.238 8.83357C101.238 13.759 98.9895 17.6671 96.2056 17.6671ZM96.2056 1.07074C94.0641 1.07074 92.2974 4.60416 92.2974 8.83357C92.2974 13.0094 94.1177 16.5964 96.2056 16.5964C98.2935 16.5964 100.114 13.063 100.114 8.83357C100.114 4.60416 98.3471 1.07074 96.2056 1.07074Z" fill="#475059"/>
<path d="M104.397 8.61942H88.1216V9.74369H104.397V8.61942Z" fill="#475059"/>
<path d="M49.7892 42.187H19.0591C17.5065 42.187 16.2751 40.9021 16.2751 39.3495V39.296C16.2751 37.7969 17.5065 36.6191 19.0591 36.6191H49.8427L55.8388 39.4031L49.7892 42.187ZM19.0591 37.7434C18.0954 37.7434 17.3994 38.3859 17.3994 39.296V39.3495C17.3994 40.2596 18.1489 41.0627 19.0591 41.0627H49.575L53.162 39.4031L49.575 37.7434H19.0591Z" fill="#475059"/>
<path d="M23.0743 37.1545H21.9501V41.5981H23.0743V37.1545Z" fill="#475059"/>
<path d="M49.0397 38.8677H22.4855V39.992H49.0397V38.8677Z" fill="#475059"/>
<path d="M94.3317 91.1731H93.2075V93.3681H94.3317V91.1731Z" fill="#475059"/>
<path d="M94.3317 96.6874H93.2074V98.8824H94.3317V96.6874Z" fill="#475059"/>
<path d="M97.5976 94.4924H95.4025V95.6167H97.5976V94.4924Z" fill="#475059"/>
<path d="M92.0832 94.4924H89.8882V95.6167H92.0832V94.4924Z" fill="#475059"/>
<path d="M40.4738 88.8175H39.3495V91.0125H40.4738V88.8175Z" fill="#475059"/>
<path d="M40.4737 94.3853H39.3495V96.5804H40.4737V94.3853Z" fill="#475059"/>
<path d="M43.793 92.1368H41.598V93.2611H43.793V92.1368Z" fill="#475059"/>
<path d="M38.2253 92.1368H36.0303V93.2611H38.2253V92.1368Z" fill="#475059"/>
<path d="M36.1373 5.24658H35.013V7.44159H36.1373V5.24658Z" fill="#475059"/>
<path d="M36.1372 10.7609H35.0129V12.9559H36.1372V10.7609Z" fill="#475059"/>
<path d="M39.4028 8.56589H37.2078V9.69016H39.4028V8.56589Z" fill="#475059"/>
<path d="M33.8351 8.56589H31.6401V9.69016H33.8351V8.56589Z" fill="#475059"/>
<path d="M0 51.9842L2.5162 49.5215L0 47.0053V44.5426H9.15477L14.1337 49.5215L9.15477 54.5004H0V51.9842Z" fill="#E50B5B"/>
<path d="M65.7431 48.9861H0V50.1104H65.7431V48.9861Z" fill="#475059"/>
<path d="M65.2614 83.3568C49.1468 83.3568 35.2272 71.8999 32.0686 56.1601L33.1393 55.9459C36.1374 71.2039 49.6822 82.286 65.2614 82.286V83.3568ZM83.6245 77.896L83.0356 76.9859C92.4045 70.9362 97.9724 60.6572 97.9724 49.5215C97.9724 38.6 92.5651 28.428 83.4639 22.3249L84.1063 21.4147C93.4752 27.7321 99.0966 38.2253 99.0966 49.5215C99.0431 61.0319 93.3146 71.6322 83.6245 77.896ZM65.2614 76.1828V75.0586C79.3951 75.0586 90.8519 63.6017 90.8519 49.468C90.8519 43.5254 88.764 37.7434 85.0164 33.1928L85.873 32.4968C89.7812 37.2616 91.9762 43.3113 91.9762 49.468C91.9227 64.2441 79.984 76.1828 65.2614 76.1828ZM45.8275 67.8311C42.4012 64.1906 40.0456 59.64 39.0819 54.7681L40.1526 54.554C41.1163 59.2652 43.3113 63.5482 46.6306 67.0816L45.8275 67.8311ZM32.9787 44.0072L31.908 43.8466C34.6919 27.5179 48.7185 15.6863 65.2614 15.6863C69.4372 15.6863 73.506 16.4358 77.3607 17.8813L76.9859 18.8985C73.2384 17.453 69.3302 16.757 65.3149 16.757C49.2003 16.757 35.6555 28.2139 32.9787 44.0072ZM45.5063 33.2464L44.6497 32.5504C49.7357 26.3936 57.2308 22.8602 65.2614 22.8602V23.9845C57.5521 23.9309 50.3782 27.3038 45.5063 33.2464Z" fill="#475059"/>
<path d="M58.944 68.0452C51.7701 65.5825 46.5771 59.1581 45.774 51.6094L46.8983 51.5024C47.6478 58.6228 52.5196 64.6724 59.3188 67.028L58.944 68.0452ZM65.2614 61.942C59.2117 61.942 54.0187 57.6056 53.0015 51.6094L54.0722 51.3953C55.0359 56.856 59.6936 60.7642 65.2614 60.7642C71.5252 60.7642 76.6112 55.6782 76.6112 49.4144C76.6112 43.1506 71.5252 38.0646 65.2614 38.0646C59.64 38.0646 54.8217 42.2405 54.0187 47.8083L52.9479 47.6477C53.8045 41.5445 59.1047 36.9404 65.2614 36.9404C72.1141 36.9404 77.6819 42.5082 77.6819 49.3609C77.6819 56.3742 72.1141 61.942 65.2614 61.942ZM80.5194 61.7279L79.6628 61.0319C82.3396 57.7126 83.7316 53.7509 83.7316 49.468C83.7316 42.99 80.2517 36.8868 74.6303 33.5676L75.2192 32.6039C81.1618 36.1373 84.8559 42.5617 84.8559 49.468C84.8023 53.9115 83.3033 58.3015 80.5194 61.7279ZM46.8448 47.9154L45.7205 47.8083C46.1488 42.5617 48.665 37.7969 52.7873 34.4241L53.4833 35.2807C49.6286 38.4394 47.273 42.9365 46.8448 47.9154Z" fill="#475059"/>
<path d="M65.4756 54.8217C63.3342 54.8217 61.4068 53.5368 60.6038 51.5559L61.621 51.1276C62.2634 52.6802 63.816 53.6974 65.4756 53.6974C67.7777 53.6974 69.6515 51.8236 69.6515 49.5215C69.6515 47.2194 67.7777 45.3457 65.4756 45.3457V44.1678C68.4201 44.1678 70.7757 46.5235 70.7757 49.468C70.7757 52.4125 68.4201 54.8217 65.4756 54.8217Z" fill="#475059"/>
<path d="M78.3243 19.5409C78.62 19.5409 78.8597 19.3012 78.8597 19.0056C78.8597 18.7099 78.62 18.4702 78.3243 18.4702C78.0286 18.4702 77.7889 18.7099 77.7889 19.0056C77.7889 19.3012 78.0286 19.5409 78.3243 19.5409Z" fill="#475059"/>
<path d="M82.5002 21.6824C82.7959 21.6824 83.0356 21.4427 83.0356 21.147C83.0356 20.8514 82.7959 20.6117 82.5002 20.6117C82.2045 20.6117 81.9648 20.8514 81.9648 21.147C81.9648 21.4427 82.2045 21.6824 82.5002 21.6824Z" fill="#475059"/>
<path d="M84.6417 32.4968C84.9374 32.4968 85.1771 32.2571 85.1771 31.9615C85.1771 31.6658 84.9374 31.4261 84.6417 31.4261C84.346 31.4261 84.1063 31.6658 84.1063 31.9615C84.1063 32.2571 84.346 32.4968 84.6417 32.4968Z" fill="#475059"/>
<path d="M66.5462 23.8774C66.8419 23.8774 67.0816 23.6377 67.0816 23.342C67.0816 23.0464 66.8419 22.8067 66.5462 22.8067C66.2506 22.8067 66.0109 23.0464 66.0109 23.342C66.0109 23.6377 66.2506 23.8774 66.5462 23.8774Z" fill="#475059"/>
<path d="M73.8272 33.0322C74.1229 33.0322 74.3625 32.7925 74.3625 32.4968C74.3625 32.2011 74.1229 31.9615 73.8272 31.9615C73.5315 31.9615 73.2918 32.2011 73.2918 32.4968C73.2918 32.7925 73.5315 33.0322 73.8272 33.0322Z" fill="#475059"/>
<path d="M54.2328 34.4777C54.5284 34.4777 54.7681 34.238 54.7681 33.9423C54.7681 33.6466 54.5284 33.407 54.2328 33.407C53.9371 33.407 53.6974 33.6466 53.6974 33.9423C53.6974 34.238 53.9371 34.4777 54.2328 34.4777Z" fill="#475059"/>
<path d="M64.0301 45.6133C64.3257 45.6133 64.5654 45.3736 64.5654 45.078C64.5654 44.7823 64.3257 44.5426 64.0301 44.5426C63.7344 44.5426 63.4947 44.7823 63.4947 45.078C63.4947 45.3736 63.7344 45.6133 64.0301 45.6133Z" fill="#475059"/>
<path d="M47.273 69.0624C47.5687 69.0624 47.8083 68.8227 47.8083 68.5271C47.8083 68.2314 47.5687 67.9917 47.273 67.9917C46.9773 67.9917 46.7376 68.2314 46.7376 68.5271C46.7376 68.8227 46.9773 69.0624 47.273 69.0624Z" fill="#475059"/>
<path d="M63.8158 76.1828C64.1115 76.1828 64.3512 75.9431 64.3512 75.6475C64.3512 75.3518 64.1115 75.1121 63.8158 75.1121C63.5201 75.1121 63.2805 75.3518 63.2805 75.6475C63.2805 75.9431 63.5201 76.1828 63.8158 76.1828Z" fill="#475059"/>
<path d="M60.7107 68.4735C61.0063 68.4735 61.246 68.2338 61.246 67.9382C61.246 67.6425 61.0063 67.4028 60.7107 67.4028C60.415 67.4028 60.1753 67.6425 60.1753 67.9382C60.1753 68.2338 60.415 68.4735 60.7107 68.4735Z" fill="#475059"/>
<path d="M79.0204 63.0663C79.316 63.0663 79.5557 62.8266 79.5557 62.5309C79.5557 62.2353 79.316 61.9956 79.0204 61.9956C78.7247 61.9956 78.485 62.2353 78.485 62.5309C78.485 62.8266 78.7247 63.0663 79.0204 63.0663Z" fill="#475059"/>
<path d="M82.1789 78.5384C82.4746 78.5384 82.7143 78.2988 82.7143 78.0031C82.7143 77.7074 82.4746 77.4677 82.1789 77.4677C81.8832 77.4677 81.6436 77.7074 81.6436 78.0031C81.6436 78.2988 81.8832 78.5384 82.1789 78.5384Z" fill="#475059"/>
<path d="M66.8139 83.3032C67.1096 83.3032 67.3493 83.0635 67.3493 82.7679C67.3493 82.4722 67.1096 82.2325 66.8139 82.2325C66.5183 82.2325 66.2786 82.4722 66.2786 82.7679C66.2786 83.0635 66.5183 83.3032 66.8139 83.3032Z" fill="#475059"/>
<path d="M39.0819 85.98C39.3776 85.98 39.6172 85.7403 39.6172 85.4447C39.6172 85.149 39.3776 84.9093 39.0819 84.9093C38.7862 84.9093 38.5465 85.149 38.5465 85.4447C38.5465 85.7403 38.7862 85.98 39.0819 85.98Z" fill="#475059"/>
<path d="M44.2749 34.3706C44.5705 34.3706 44.8102 34.1309 44.8102 33.8352C44.8102 33.5396 44.5705 33.2999 44.2749 33.2999C43.9792 33.2999 43.7395 33.5396 43.7395 33.8352C43.7395 34.1309 43.9792 34.3706 44.2749 34.3706Z" fill="#475059"/>
<path d="M39.3495 53.9115C39.6452 53.9115 39.8849 53.6718 39.8849 53.3762C39.8849 53.0805 39.6452 52.8408 39.3495 52.8408C39.0538 52.8408 38.8141 53.0805 38.8141 53.3762C38.8141 53.6718 39.0538 53.9115 39.3495 53.9115Z" fill="#475059"/>
<path d="M32.4433 55.0358C32.739 55.0358 32.9787 54.7961 32.9787 54.5004C32.9787 54.2047 32.739 53.9651 32.4433 53.9651C32.1477 53.9651 31.908 54.2047 31.908 54.5004C31.908 54.7961 32.1477 55.0358 32.4433 55.0358Z" fill="#475059"/>
<path d="M22.8602 87.372H17.6136V88.4963L24.7876 90.263V87.8538L22.8602 87.372Z" fill="#DEDEDD"/>
<path d="M17.9884 90.6378V92.9398H24.7876V92.3509L17.9884 90.6378Z" fill="#DEDEDD"/>
<path d="M21.2007 62.1562C15.4187 62.1562 10.7075 66.8674 10.7075 72.6494C10.7075 77.093 13.4378 80.8941 17.346 82.4466H25.1088C29.017 80.8941 31.7474 77.093 31.7474 72.6494C31.6939 66.8139 27.0362 62.1562 21.2007 62.1562Z" fill="#FFD15D"/>
<path d="M24.0382 85.4447H18.3633V87.6932H24.0382V85.4447Z" fill="#DEDEDD"/>
<path d="M10.0114 78.7526C8.99421 76.8788 8.45886 74.7909 8.45886 72.7029C8.45886 65.6896 14.1873 59.9612 21.2006 59.9612C23.7704 59.9612 26.2331 60.7107 28.321 62.1562L27.6785 63.0663C25.7512 61.7814 23.5027 61.0855 21.2006 61.0855C14.7762 61.0855 9.58312 66.2785 9.58312 72.7029C9.58312 74.6303 10.065 76.5576 10.9751 78.2172L10.0114 78.7526Z" fill="#475059"/>
<path d="M25.323 93.6358H17.0783V87.372H18.2026V92.5651H24.1987V87.372H25.323V93.6358Z" fill="#475059"/>
<path d="M13.0095 72.81H11.8853C11.8853 67.617 16.1147 63.3875 21.3077 63.3875V64.5118C16.7571 64.5118 13.0095 68.2059 13.0095 72.81Z" fill="white"/>
<path d="M26.2331 87.9609H16.1147V84.4275C14.4015 83.678 12.8489 82.5537 11.6176 81.1617L12.4742 80.4122C13.7055 81.8042 15.2045 82.8749 16.9177 83.5709L17.2925 83.7315V86.9437H25.1624V83.7315L25.5371 83.5709C29.9807 81.8042 32.8717 77.5748 32.8717 72.7565C32.8717 69.7584 31.6939 66.8674 29.6059 64.726L30.409 63.9764C32.7111 66.3856 33.9424 69.4907 33.9424 72.81C33.9424 77.9495 30.9443 82.5002 26.2866 84.481V87.9609H26.2331Z" fill="#475059"/>
<path d="M21.7896 75.4868H20.6653V84.2669H21.7896V75.4868Z" fill="white"/>
<path d="M11.1358 80.1446C11.4314 80.1446 11.6711 79.9049 11.6711 79.6092C11.6711 79.3135 11.4314 79.0738 11.1358 79.0738C10.8401 79.0738 10.6004 79.3135 10.6004 79.6092C10.6004 79.9049 10.8401 80.1446 11.1358 80.1446Z" fill="#475059"/>
<path d="M25.6978 83.4638H16.7036V84.5881H25.6978V83.4638Z" fill="#475059"/>
<path d="M21.2007 76.0757C19.3269 76.0757 17.8279 74.5767 17.8279 72.7029C17.8279 70.8291 19.3269 69.3301 21.2007 69.3301C23.0745 69.3301 24.5735 70.8291 24.5735 72.7029C24.5735 74.5232 23.0745 76.0757 21.2007 76.0757ZM21.2007 70.4544C19.9693 70.4544 18.9521 71.4716 18.9521 72.7029C18.9521 73.9343 19.9693 74.9515 21.2007 74.9515C22.432 74.9515 23.4492 73.9343 23.4492 72.7029C23.4492 71.418 22.432 70.4544 21.2007 70.4544Z" fill="#475059"/>
<path d="M28.9636 63.9229C29.2593 63.9229 29.499 63.6832 29.499 63.3875C29.499 63.0919 29.2593 62.8522 28.9636 62.8522C28.6679 62.8522 28.4282 63.0919 28.4282 63.3875C28.4282 63.6832 28.6679 63.9229 28.9636 63.9229Z" fill="#475059"/>
<path d="M32.2291 45.8275C32.5248 45.8275 32.7645 45.5878 32.7645 45.2921C32.7645 44.9964 32.5248 44.7567 32.2291 44.7567C31.9334 44.7567 31.6937 44.9964 31.6937 45.2921C31.6937 45.5878 31.9334 45.8275 32.2291 45.8275Z" fill="#475059"/>
<path d="M63.0128 89.8882H61.8885V102.63H63.0128V89.8882Z" fill="#475059"/>
<path d="M68.5806 89.8882H67.4564V102.63H68.5806V89.8882Z" fill="#475059"/>
<path d="M25.8582 101.452C25.7512 101.452 25.6441 101.452 25.4835 101.452C22.7531 101.292 20.6116 98.9359 20.6116 96.0985V93.3681H21.7359V96.0985C21.7359 98.347 23.3955 100.221 25.537 100.328C26.6613 100.381 27.7856 100.007 28.6421 99.2036C29.4987 98.4006 29.927 97.3298 29.927 96.2056V90.4236C29.927 87.372 32.4433 84.8558 35.4948 84.8558H37.4222V85.98H35.4948C33.0322 85.98 30.9977 87.9609 30.9977 90.4771V96.2591C30.9977 97.7046 30.4089 99.0966 29.3381 100.06C28.428 100.97 27.1967 101.452 25.8582 101.452Z" fill="#475059"/>
<path d="M96.7945 0.53537H95.6702V17.1318H96.7945V0.53537Z" fill="#475059"/>
</svg>
