<svg width="11" height="14" viewBox="0 0 11 14" fill="none" xmlns="http://www.w3.org/2000/svg">
<path d="M0.0769348 5.44444H0.879038V0H6.89481C8.90007 0 10.5043 1.55556 10.5043 3.5C10.5043 5.44444 8.90007 7 6.89481 7H2.48324V8.55556H7.29586V10.1111H2.48324V14H0.879038V10.1111H0.0769348V8.55556H0.879038V7H0.0769348V5.44444ZM6.89481 1.55556H2.48324V5.44444H6.89481C7.42664 5.44444 7.93668 5.23958 8.31274 4.87493C8.6888 4.51028 8.90007 4.0157 8.90007 3.5C8.90007 2.9843 8.6888 2.48972 8.31274 2.12507C7.93668 1.76042 7.42664 1.55556 6.89481 1.55556V1.55556Z" fill="white"/>
</svg>
