<svg width="93" height="103" viewBox="0 0 93 103" fill="none" xmlns="http://www.w3.org/2000/svg">
<path d="M8.81347 68.1191L9.98157 66.7918C10.9373 67.1634 10.9372 67.1634 11.8929 67.5882L11.7868 69.3934C12.2646 69.8712 12.477 70.0836 12.9017 70.5083L14.7069 70.4022C15.0786 71.3578 15.0786 71.3578 15.5033 72.3135L14.176 73.4816C14.176 74.1187 14.176 74.4373 14.176 75.0744L15.5033 76.2425C15.1317 77.1981 15.1317 77.1981 14.7069 78.1538L12.9017 78.0476C12.4239 78.5255 12.2115 78.7379 11.7868 79.1626L11.8929 80.9678C10.9372 81.3394 10.9373 81.3394 9.98157 81.7642L8.81347 80.4369C8.17635 80.4369 7.85779 80.4369 7.22066 80.4369L5.99955 81.7642C5.04386 81.3925 5.04388 81.3925 4.08819 80.9678L4.19435 79.1626C3.71651 78.6848 3.50415 78.4724 3.0794 78.0476L1.2742 78.1538C0.902548 77.1981 0.902548 77.1981 0.477798 76.2425L1.80514 75.0744C1.80514 74.4373 1.80514 74.1187 1.80514 73.4816L0.477798 72.3135C0.849454 71.3578 0.849454 71.3578 1.2742 70.4022L3.0794 70.5083C3.55724 70.0305 3.7696 69.8181 4.19435 69.3934L4.08819 67.5882C5.04388 67.2165 5.04386 67.2165 5.99955 66.7918L7.22066 68.1191C7.8047 68.1191 8.12326 68.1191 8.81347 68.1191Z" fill="#DEDEDD"/>
<path d="M14.2567 67.2541L11.8165 69.6944L14.2567 72.1346L16.697 69.6944L14.2567 67.2541Z" fill="#FFD15D"/>
<path d="M14.2821 74.278C11.7337 74.278 9.66302 72.2074 9.66302 69.6589C9.66302 67.1104 11.7337 65.0397 14.2821 65.0397C16.8306 65.0397 18.9013 67.1104 18.9013 69.6589C18.9013 72.2074 16.8306 74.278 14.2821 74.278ZM14.2821 66.1547C12.3177 66.1547 10.778 67.7475 10.778 69.6589C10.778 71.5702 12.3708 73.163 14.2821 73.163C16.1935 73.163 17.7863 71.5702 17.7863 69.6589C17.7863 67.7475 16.1935 66.1547 14.2821 66.1547Z" fill="#E50B5B"/>
<path d="M12.4239 77.8353L9.82226 76.7734L9.92849 74.862L9.13209 74.0656L7.22066 74.1718L6.15879 71.5702L7.59236 70.296V69.181L6.15879 67.9068L7.22066 65.3052L9.13209 65.4114L9.92849 64.615L9.82226 62.7036L12.4239 61.6417L13.6981 63.0752H14.8131L16.0873 61.6417L18.6889 62.7036L18.5827 64.615L19.3791 65.4114L21.2905 65.3052L22.3524 67.9068L20.9188 69.181V70.296L22.3524 71.5702L21.2905 74.1718L19.3791 74.0656L18.5827 74.862L18.6889 76.7734L16.0873 77.8353L14.8131 76.4017H13.6981L12.4239 77.8353ZM13.2203 75.2868H15.2909L16.4059 76.5079L17.5739 76.0301L17.4678 74.3842L18.9544 72.8976L20.6003 73.0038L21.0782 71.8357L19.857 70.7207V68.6501L21.0782 67.5351L20.6003 66.3671L18.9544 66.4732L17.4678 64.9866L17.5739 63.3407L16.4059 62.8629L15.2909 64.084H13.2203L12.1053 62.8629L10.9372 63.3407L11.0434 64.9866L9.5568 66.4732L7.91091 66.3671L7.43305 67.5351L8.65423 68.6501V70.7207L7.43305 71.8357L7.91091 73.0038L9.5568 72.8976L11.0434 74.3842L10.9372 76.0301L12.1053 76.5079L13.2203 75.2868Z" fill="#475059"/>
<path d="M54.2087 22.3524C54.5019 22.3524 54.7396 22.1147 54.7396 21.8215C54.7396 21.5283 54.5019 21.2906 54.2087 21.2906C53.9154 21.2906 53.6777 21.5283 53.6777 21.8215C53.6777 22.1147 53.9154 22.3524 54.2087 22.3524Z" fill="#475059"/>
<path d="M51.5008 22.3524C51.7941 22.3524 52.0318 22.1147 52.0318 21.8215C52.0318 21.5283 51.7941 21.2906 51.5008 21.2906C51.2076 21.2906 50.9699 21.5283 50.9699 21.8215C50.9699 22.1147 51.2076 22.3524 51.5008 22.3524Z" fill="#475059"/>
<path d="M79.1095 26.4406V24.5293C79.1095 21.9808 81.1801 19.9101 83.7286 19.9101C86.2771 19.9101 88.3478 21.9808 88.3478 24.5293V33.2897C88.3478 43.4306 80.1183 51.6601 69.9774 51.7132L68.7562 51.6601C67.2696 51.6601 65.8891 52.2972 64.9866 53.4653C64.0309 54.6334 63.7123 56.12 63.9778 57.5535C64.3494 59.4118 65.8891 60.8984 67.6943 61.27C68.0129 61.3231 68.3845 61.3762 68.7031 61.3762C69.8181 61.3762 70.9331 61.0046 71.7826 60.2613C72.9506 59.3056 73.5877 57.9251 73.5877 56.4916H70.349C70.349 56.9695 70.1366 57.4473 69.765 57.7659C69.5526 57.9251 69.0748 58.2437 68.3846 58.0844C67.8005 57.9782 67.2696 57.4473 67.1634 56.8633C67.0041 56.1731 67.3226 55.6952 67.4819 55.4828C67.8005 55.1112 68.2253 54.8988 68.7031 54.8988L69.9243 54.9519C81.8704 54.9519 91.5865 45.2358 91.5865 33.2897V24.5293C91.5865 20.1756 88.0292 16.6714 83.7286 16.6714C79.375 16.6714 75.8708 20.2287 75.8708 24.5293V26.4406C73.9594 27.1308 72.6321 28.936 72.6321 31.0598C72.6321 31.8031 72.7913 32.5464 73.1099 33.1835L69.181 37.1124C68.9686 38.546 68.5439 40.7759 68.066 42.8466L75.446 35.4665C76.0831 35.7851 76.7733 35.9444 77.5697 35.9444C80.2775 35.9444 82.4544 33.7675 82.4544 31.0598C82.4013 28.936 81.0208 27.1308 79.1095 26.4406ZM79.1095 31.0598C79.1095 31.9624 78.3662 32.7057 77.4636 32.7057C76.561 32.7057 75.8177 31.9624 75.8177 31.0598C75.8177 30.1572 76.561 29.4139 77.4636 29.4139C78.4192 29.4139 79.1095 30.1572 79.1095 31.0598Z" fill="#FFD15D"/>
<path d="M68.8092 61.9603V60.8984C69.818 60.8984 70.7737 60.5798 71.5701 59.9427C72.5789 59.0932 73.1629 57.8721 73.1629 56.5978H74.2248C74.2248 58.2437 73.4815 59.7834 72.2072 60.7922C71.3046 61.5355 70.0835 61.9603 68.8092 61.9603ZM70.0304 52.2972V51.2354C79.8527 51.1823 87.8168 43.2182 87.8168 33.3959H88.8786C88.9317 43.7492 80.4368 52.2441 70.0304 52.2972ZM69.6056 37.3779L68.8624 36.6346L72.4727 33.0243C72.2072 32.3871 72.1011 31.75 72.1011 31.0598H73.1629C73.1629 31.6969 73.3222 32.334 73.5876 32.9181L73.747 33.2897L69.6056 37.3779ZM92.1704 33.3428H91.1085V24.5824H92.1704V33.3428ZM82.9322 31.0598H81.8703C81.8703 29.2546 80.7022 27.6087 79.0032 26.9716L78.6315 26.8654V24.5824C78.6315 21.7153 80.9677 19.4323 83.7817 19.4323C86.5956 19.4323 88.9317 21.7684 88.9317 24.5824H87.8699C87.8699 22.3524 86.0116 20.4942 83.7817 20.4942C81.5517 20.4942 79.6934 22.3524 79.6934 24.5824V26.1221C81.6048 26.9716 82.9322 28.8829 82.9322 31.0598Z" fill="#475059"/>
<path d="M72.7912 30.2103C73.0845 30.2103 73.3222 29.9726 73.3222 29.6793C73.3222 29.3861 73.0845 29.1484 72.7912 29.1484C72.498 29.1484 72.2603 29.3861 72.2603 29.6793C72.2603 29.9726 72.498 30.2103 72.7912 30.2103Z" fill="#475059"/>
<path d="M88.4008 26.5468C88.6941 26.5468 88.9318 26.3091 88.9318 26.0159C88.9318 25.7227 88.6941 25.485 88.4008 25.485C88.1076 25.485 87.8699 25.7227 87.8699 26.0159C87.8699 26.3091 88.1076 26.5468 88.4008 26.5468Z" fill="#475059"/>
<path d="M91.6395 35.3604C91.9327 35.3604 92.1704 35.1227 92.1704 34.8294C92.1704 34.5362 91.9327 34.2985 91.6395 34.2985C91.3463 34.2985 91.1086 34.5362 91.1086 34.8294C91.1086 35.1227 91.3463 35.3604 91.6395 35.3604Z" fill="#475059"/>
<path d="M82.1358 33.1835C82.429 33.1835 82.6667 32.9458 82.6667 32.6526C82.6667 32.3594 82.429 32.1216 82.1358 32.1216C81.8425 32.1216 81.6048 32.3594 81.6048 32.6526C81.6048 32.9458 81.8425 33.1835 82.1358 33.1835Z" fill="#475059"/>
<path d="M88.4008 32.1217C88.6941 32.1217 88.9318 31.8839 88.9318 31.5907C88.9318 31.2975 88.6941 31.0598 88.4008 31.0598C88.1076 31.0598 87.8699 31.2975 87.8699 31.5907C87.8699 31.8839 88.1076 32.1217 88.4008 32.1217Z" fill="#475059"/>
<path d="M68.2783 52.5096C68.5715 52.5096 68.8092 52.2719 68.8092 51.9787C68.8092 51.6854 68.5715 51.4477 68.2783 51.4477C67.9851 51.4477 67.7473 51.6854 67.7473 51.9787C67.7473 52.2719 67.9851 52.5096 68.2783 52.5096Z" fill="#475059"/>
<path d="M71.2516 55.4298C71.5448 55.4298 71.7825 55.1921 71.7825 54.8988C71.7825 54.6056 71.5448 54.3679 71.2516 54.3679C70.9584 54.3679 70.7206 54.6056 70.7206 54.8988C70.7206 55.1921 70.9584 55.4298 71.2516 55.4298Z" fill="#475059"/>
<path d="M67.2164 61.5886C67.5096 61.5886 67.7473 61.3509 67.7473 61.0577C67.7473 60.7644 67.5096 60.5267 67.2164 60.5267C66.9232 60.5267 66.6855 60.7644 66.6855 61.0577C66.6855 61.3509 66.9232 61.5886 67.2164 61.5886Z" fill="#475059"/>
<path d="M9.76931 31.0598C9.76931 33.7675 11.9461 35.9444 14.6539 35.9444C15.3972 35.9444 16.1405 35.7851 16.7776 35.4665L24.1577 42.8466C23.6267 40.7759 23.2551 38.546 23.0427 37.1124L19.1138 33.1835C19.4323 32.5464 19.5916 31.8562 19.5916 31.0598C19.5916 28.936 18.2112 27.1308 16.3529 26.4406V24.5293C16.3529 20.1756 12.7956 16.6714 8.49505 16.6714C4.19446 16.6714 0.637228 20.2287 0.637228 24.5293V33.2897C0.637228 45.2358 10.3533 54.9519 22.2994 54.9519L23.5206 54.8988C23.9984 54.8988 24.4231 55.1112 24.7417 55.4828C24.901 55.6952 25.2196 56.1731 25.0603 56.8633C24.9541 57.4473 24.4232 57.9782 23.8391 58.0844C23.1489 58.2437 22.6711 57.9251 22.4587 57.7659C22.087 57.4473 21.8747 56.9695 21.8747 56.4916H18.6359C18.6359 57.9782 19.2731 59.3587 20.4411 60.2613C21.3437 60.9515 22.4056 61.3762 23.5206 61.3762C23.8391 61.3762 24.2108 61.3231 24.5294 61.27C26.3876 60.8984 27.8743 59.3587 28.2459 57.5535C28.5645 56.0669 28.1928 54.5803 27.2371 53.4653C26.2814 52.2972 24.901 51.6601 23.4675 51.6601L22.2463 51.7132C12.1054 51.6601 3.87593 43.4306 3.87593 33.2897V24.5293C3.87593 21.9808 5.94655 19.9101 8.49505 19.9101C11.0435 19.9101 13.1142 21.9808 13.1142 24.5293V26.4406C11.1498 27.1308 9.76931 28.936 9.76931 31.0598ZM14.6539 29.4139C15.5565 29.4139 16.2999 30.1572 16.2999 31.0598C16.2999 31.9624 15.5565 32.7057 14.6539 32.7057C13.7513 32.7057 13.008 31.9624 13.008 31.0598C13.008 30.1572 13.7513 29.4139 14.6539 29.4139Z" fill="#FFD15D"/>
<path d="M23.3081 61.9603C22.087 61.9603 20.8658 61.5355 19.9101 60.7391C18.6359 59.7303 17.8926 58.1906 17.8926 56.5447H18.9545C18.9545 57.8721 19.5385 59.0932 20.5473 59.8896C21.2906 60.5267 22.2993 60.8453 23.3081 60.8453V61.9603ZM22.1401 52.2972C11.7337 52.2441 3.2387 43.7492 3.2387 33.3428H4.30057C4.30057 43.1651 12.2646 51.1823 22.0869 51.1823L22.1401 52.2972ZM22.5117 37.3779L18.3704 33.2366L18.5297 32.865C18.7952 32.2809 18.9545 31.6438 18.9545 31.0067H20.0163C20.0163 31.6969 19.9101 32.334 19.6446 32.9712L23.255 36.5815L22.5117 37.3779ZM1.06187 33.3428H0V24.5824H1.06187V33.3428ZM10.3002 31.0598H9.23831C9.23831 28.8829 10.5125 26.9716 12.477 26.1221V24.5824C12.477 22.3524 10.6188 20.4942 8.38882 20.4942C6.15889 20.4942 4.30057 22.3524 4.30057 24.5824H3.2387C3.2387 21.7153 5.57486 19.4323 8.38882 19.4323C11.2028 19.4323 13.5389 21.7684 13.5389 24.5824V26.8654L13.1672 26.9716C11.4683 27.6087 10.3002 29.2015 10.3002 31.0598Z" fill="#475059"/>
<path d="M19.326 30.2103C19.6193 30.2103 19.857 29.9726 19.857 29.6793C19.857 29.3861 19.6193 29.1484 19.326 29.1484C19.0328 29.1484 18.7951 29.3861 18.7951 29.6793C18.7951 29.9726 19.0328 30.2103 19.326 30.2103Z" fill="#475059"/>
<path d="M3.7697 26.5468C4.06293 26.5468 4.30063 26.3091 4.30063 26.0159C4.30063 25.7227 4.06293 25.485 3.7697 25.485C3.47647 25.485 3.23876 25.7227 3.23876 26.0159C3.23876 26.3091 3.47647 26.5468 3.7697 26.5468Z" fill="#475059"/>
<path d="M0.530936 35.3604C0.824165 35.3604 1.06187 35.1227 1.06187 34.8294C1.06187 34.5362 0.824165 34.2985 0.530936 34.2985C0.237708 34.2985 0 34.5362 0 34.8294C0 35.1227 0.237708 35.3604 0.530936 35.3604Z" fill="#475059"/>
<path d="M9.98163 33.1835C10.2749 33.1835 10.5126 32.9458 10.5126 32.6526C10.5126 32.3594 10.2749 32.1216 9.98163 32.1216C9.6884 32.1216 9.4507 32.3594 9.4507 32.6526C9.4507 32.9458 9.6884 33.1835 9.98163 33.1835Z" fill="#475059"/>
<path d="M3.7697 32.1217C4.06293 32.1217 4.30063 31.8839 4.30063 31.5907C4.30063 31.2975 4.06293 31.0598 3.7697 31.0598C3.47647 31.0598 3.23876 31.2975 3.23876 31.5907C3.23876 31.8839 3.47647 32.1217 3.7697 32.1217Z" fill="#475059"/>
<path d="M23.8921 52.5096C24.1854 52.5096 24.4231 52.2719 24.4231 51.9787C24.4231 51.6854 24.1854 51.4477 23.8921 51.4477C23.5989 51.4477 23.3612 51.6854 23.3612 51.9787C23.3612 52.2719 23.5989 52.5096 23.8921 52.5096Z" fill="#475059"/>
<path d="M20.8658 55.4298C21.1591 55.4298 21.3968 55.1921 21.3968 54.8988C21.3968 54.6056 21.1591 54.3679 20.8658 54.3679C20.5726 54.3679 20.3349 54.6056 20.3349 54.8988C20.3349 55.1921 20.5726 55.4298 20.8658 55.4298Z" fill="#475059"/>
<path d="M24.954 61.5886C25.2472 61.5886 25.4849 61.3509 25.4849 61.0577C25.4849 60.7644 25.2472 60.5267 24.954 60.5267C24.6608 60.5267 24.4231 60.7644 24.4231 61.0577C24.4231 61.3509 24.6608 61.5886 24.954 61.5886Z" fill="#475059"/>
<path d="M23.733 58.7216H23.3082V57.6597H23.6267C23.9984 57.5535 24.317 57.2349 24.3701 56.8102C24.4762 56.3855 24.317 56.0669 24.1577 55.8545C23.9453 55.5891 23.6798 55.4829 23.3613 55.4298L22.1932 55.4829L22.1402 54.421L23.3613 54.3679C24.0515 54.3679 24.6356 54.6865 25.0603 55.1643C25.3258 55.4829 25.6974 56.12 25.485 57.0226C25.3257 57.8721 24.6355 58.5623 23.8391 58.7216H23.733Z" fill="#475059"/>
<path d="M72.1012 102.63H20.0694V93.9227H35.7851V95.0376H21.1313V101.515H71.0393V95.0376H56.3855V93.9227H72.1012V102.63Z" fill="#475059"/>
<path d="M55.3236 95.0376H36.9001V92.2237L37.0594 92.0644C39.7672 89.5159 41.2007 85.8524 41.2007 81.7111V78.791H50.9699V81.7111C50.9699 85.8524 52.4565 89.5159 55.1112 92.0644L55.2705 92.2237V95.0376H55.3236ZM37.962 93.9227H54.2086V92.6484C51.3946 89.8876 49.8549 86.0117 49.8549 81.658V79.7998H42.2625V81.658C42.2625 86.0117 40.7228 89.8876 37.9089 92.6484V93.9227H37.962Z" fill="#475059"/>
<path d="M50.97 76.6141H41.2007V77.676H50.97V76.6141Z" fill="#475059"/>
<path d="M48.793 75.4992H47.7311V72.4728L47.9966 72.3136C61.0045 65.3052 69.8181 45.2358 69.9243 22.3524H55.8545V21.2906H71.0393V21.8215C71.0393 45.1296 62.1195 65.6768 48.793 73.11V75.4992Z" fill="#475059"/>
<path d="M44.4924 75.4992H43.4306V73.11C30.1041 65.7299 21.1843 45.1827 21.1843 21.8215V21.2906H49.908V22.3524H22.2462C22.4055 45.2358 31.1659 65.2521 44.1739 72.3136L44.4394 72.4728V75.4992H44.4924Z" fill="#475059"/>
<path d="M45.5544 75.4992H46.6162V71.8357L47.4126 71.3579C59.9427 64.615 68.4377 45.5544 68.8625 23.4674H23.3612C23.786 45.5544 32.2809 64.615 44.811 71.3579L45.6075 71.8357V75.4992H45.5544Z" fill="#FFD15D"/>
<path d="M39.2893 92.8608H52.8813C50.2266 89.9406 48.7931 86.0648 48.7931 81.7111V80.9678H43.3775V81.7111C43.3775 86.0648 41.944 89.9406 39.2893 92.8608Z" fill="#FFD15D"/>
<path d="M69.9774 96.0995H22.2462V100.453H69.9774V96.0995Z" fill="#FFD15D"/>
<path d="M64.5619 76.1363C63.3407 76.1363 62.385 75.1806 62.385 73.9594C62.385 72.7383 63.3407 71.7826 64.5619 71.7826C65.783 71.7826 66.7387 72.7383 66.7387 73.9594C66.7387 75.1806 65.783 76.1363 64.5619 76.1363ZM64.5619 72.8975C63.9778 72.8975 63.5 73.3754 63.5 73.9594C63.5 74.5434 63.9778 75.0213 64.5619 75.0213C65.1459 75.0213 65.6237 74.5434 65.6237 73.9594C65.6237 73.3754 65.199 72.8975 64.5619 72.8975Z" fill="#475059"/>
<path d="M10.5655 5.30936H9.50365V7.4862H10.5655V5.30936Z" fill="#475059"/>
<path d="M10.5656 10.7249H9.50369V12.9017H10.5656V10.7249Z" fill="#475059"/>
<path d="M13.8573 8.54807H11.6805V9.60994H13.8573V8.54807Z" fill="#475059"/>
<path d="M8.44184 8.54807H6.26501V9.60994H8.44184V8.54807Z" fill="#475059"/>
<path d="M27.0778 71.995H26.0159V74.1718H27.0778V71.995Z" fill="#475059"/>
<path d="M27.0778 77.4105H26.0159V79.5874H27.0778V77.4105Z" fill="#475059"/>
<path d="M30.3696 75.2337H28.1927V76.2956H30.3696V75.2337Z" fill="#475059"/>
<path d="M24.954 75.2337H22.7771V76.2956H24.954V75.2337Z" fill="#475059"/>
<path d="M86.7552 61.4294H85.6933V63.6062H86.7552V61.4294Z" fill="#475059"/>
<path d="M86.7553 66.8449H85.6934V69.0217H86.7553V66.8449Z" fill="#475059"/>
<path d="M89.9939 64.6681H87.8171V65.7299H89.9939V64.6681Z" fill="#475059"/>
<path d="M84.5783 64.6681H82.4015V65.7299H84.5783V64.6681Z" fill="#475059"/>
<path d="M48.9524 44.3332H42.6342L40.829 39.2362L37.2186 37.7496L32.334 40.0857L27.8742 35.6258L30.2103 30.7412L28.7236 27.1309L23.6267 25.3257V19.0075L28.7236 17.2023L30.2103 13.592L27.8742 8.70735L32.334 4.24749L37.2186 6.58361L40.829 5.09699L42.6342 0H48.9524L50.7575 5.09699L54.3679 6.58361L59.2525 4.24749L63.7124 8.70735L61.3762 13.592L62.8629 17.2023L67.9599 19.0075V25.3257L62.8629 27.1309L61.3762 30.7412L63.7124 35.6258L59.2525 40.0857L58.8809 39.9264L54.3148 37.7496L50.7044 39.2362L48.9524 44.3332ZM43.4306 43.2713H48.2091L49.908 38.4398L54.421 36.5815L59.0402 38.8115L62.4381 35.4135L60.2082 30.7943L62.0665 26.2814L66.898 24.5823V19.8039L62.0665 18.1049L60.2082 13.592L62.4381 8.97282L59.0402 5.57483L54.421 7.80477L49.908 5.94649L48.2091 1.11497H43.4306L41.7316 5.94649L37.2186 7.80477L32.5995 5.57483L29.2015 8.97282L31.4315 13.592L29.5732 18.1049L24.7416 19.8039V24.5823L29.5732 26.2814L31.4315 30.7943L29.2015 35.4135L32.5995 38.8115L37.2186 36.5815L41.7316 38.4398L43.4306 43.2713Z" fill="#475059"/>
<path d="M45.8198 28.6175C42.2095 28.6175 39.2893 25.6973 39.2893 22.087C39.2893 18.4766 42.2095 15.5564 45.8198 15.5564C49.4302 15.5564 52.3503 18.4766 52.3503 22.087C52.2972 25.6973 49.3771 28.6175 45.8198 28.6175ZM45.8198 16.6714C42.8466 16.6714 40.4042 19.1137 40.4042 22.087C40.4042 25.0602 42.8466 27.5025 45.8198 27.5025C48.7931 27.5025 51.2354 25.0602 51.2354 22.087C51.2354 19.1137 48.7931 16.6714 45.8198 16.6714Z" fill="#475059"/>
<path d="M45.8199 24.7947C47.3154 24.7947 48.5277 23.5824 48.5277 22.087C48.5277 20.5915 47.3154 19.3792 45.8199 19.3792C44.3244 19.3792 43.1121 20.5915 43.1121 22.087C43.1121 23.5824 44.3244 24.7947 45.8199 24.7947Z" fill="#E50B5B"/>
<path d="M45.8198 31.8562C40.4573 31.8562 36.0505 27.5025 36.0505 22.0869C36.0505 16.7245 40.4042 12.3177 45.8198 12.3177C51.2353 12.3177 55.589 16.6714 55.589 22.0869C55.589 27.5025 51.1822 31.8562 45.8198 31.8562ZM45.8198 13.9636C41.3599 13.9636 37.6964 17.6271 37.6964 22.0869C37.6964 26.5468 41.3599 30.2103 45.8198 30.2103C50.2796 30.2103 53.9431 26.5468 53.9431 22.0869C53.9431 17.6271 50.2796 13.9636 45.8198 13.9636Z" fill="#DEDEDD"/>
<path d="M80.4369 86.9143H57.6067V87.9762H80.4369V86.9143Z" fill="#DEDEDD"/>
<path d="M57.5537 86.3834H28.5646V87.4452H57.5537V86.3834Z" fill="#DEDEDD"/>
<path d="M57.6067 88.5071H33.4491V83.0916H57.6067V84.2065H34.511V87.4452H57.6067V88.5071Z" fill="#475059"/>
<path d="M80.4371 89.0911H56.9697V82.5606H80.4371C82.2423 82.5606 83.6758 83.9941 83.6758 85.7993C83.6758 87.6045 82.2423 89.0911 80.4371 89.0911ZM58.0316 87.9762H80.4371C81.6582 87.9762 82.6139 87.0205 82.6139 85.7993C82.6139 84.5782 81.6582 83.6225 80.4371 83.6225H58.0316V87.9762Z" fill="#475059"/>
<path d="M80.0654 82.8261H79.0035V81.7642C79.0035 81.4456 78.738 81.2333 78.4726 81.2333H61.1109V80.1714H78.4726C79.3752 80.1714 80.1185 80.9147 80.1185 81.8173V82.8261H80.0654Z" fill="#475059"/>
<path d="M35.095 88.5071H29.4671L25.8568 85.7993L29.4671 83.0916H35.095V84.2065H29.8388L27.6619 85.7993L29.8388 87.4452H35.095V88.5071Z" fill="#475059"/>
<path d="M27.5027 85.2684H25.3259V86.3302H27.5027V85.2684Z" fill="#475059"/>
</svg>
