<svg width="58" height="57" viewBox="0 0 58 57" fill="none" xmlns="http://www.w3.org/2000/svg">
<g clip-path="url(#clip0)">
<path fill-rule="evenodd" clip-rule="evenodd" d="M48.2101 9.27L42.9901 8.34001L39.5701 12.405L41.3701 17.4L46.5901 18.33L50.0101 14.265L48.2101 9.27ZM46.1401 16.17L46.0651 16.155L44.9851 13.185L41.8951 12.63L41.8801 12.585L43.9501 10.14L47.1001 10.71L48.1951 13.725L46.1401 16.17Z" fill="#BD1859"/>
<path d="M25.0951 27.825L40.3501 14.25L43.8751 14.115L45.5851 16.77L44.1001 18.765L30.9151 33.765L25.0951 27.825Z" fill="#BD1859"/>
<path d="M14.7601 39.045L21.1501 32.595L21.4951 32.265L23.8501 34.68L16.8451 41.37C16.9951 41.505 17.1601 41.64 17.3251 41.775L24.1501 35.205L26.1001 36.51L19.0951 43.155C19.7401 43.665 20.3701 44.175 20.9551 44.73L28.3351 38.01L20.6401 30.15L13.9201 37.155C14.1151 37.845 14.4001 38.475 14.7601 39.045Z" fill="#BD1859"/>
<path d="M25.2901 33.825L16.3501 42.915L13.0351 39.66L21.9751 30.57L25.2901 33.825Z" fill="#BD1859"/>
<path d="M31.3801 33.15L25.6651 27.3L17.4901 23.025L11.8801 26.355L14.4451 28.98L18.0151 28.56L19.6951 31.725L27.2851 38.895L30.2701 39.885L29.5201 43.905L33.3601 46.365L35.4451 40.86L31.3801 33.15ZM31.0951 37.8L20.8051 27.465L15.0601 25.65L17.8501 25.89L21.2251 26.535L21.4351 26.655L31.8901 37.155L32.0101 37.365L32.5351 40.89L32.8351 43.335L31.0951 37.8Z" fill="#BD1859"/>
<path d="M15.18 38.475L0.600006 24.885L0.900006 40.8C0.900006 49.965 9.75 58.65 18.585 56.205L32.325 56.01L22.05 45.345L15.18 38.475Z" fill="#BD1859"/>
<path d="M42.225 56.97H15.09C6.81001 56.97 0.0750122 49.83 0.0750122 41.055V15.99C0.0750122 7.215 6.81001 0.0750008 15.09 0.0750008H42.225C50.505 0.0750008 57.24 7.215 57.24 15.99V41.055C57.24 49.83 50.505 56.97 42.225 56.97ZM15.09 1.425C7.56001 1.425 1.42501 7.965 1.42501 15.99V41.055C1.42501 49.095 7.56001 55.62 15.09 55.62H42.225C49.755 55.62 55.89 49.08 55.89 41.055V15.99C55.89 7.95 49.755 1.425 42.225 1.425H15.09Z" fill="#BD1859"/>
</g>
<defs>
<clipPath id="clip0">
<rect width="57.3" height="57" fill="white"/>
</clipPath>
</defs>
</svg>
