<svg width="107" height="103" viewBox="0 0 107 103" fill="none" xmlns="http://www.w3.org/2000/svg">
<path d="M27.7868 91.5152H26.6961V93.7486H27.7868V91.5152Z" fill="#475059"/>
<path d="M27.7867 97.0726H26.696V99.306H27.7867V97.0726Z" fill="#475059"/>
<path d="M31.1627 94.8393H28.9294V95.93H31.1627V94.8393Z" fill="#475059"/>
<path d="M25.6055 94.8393H23.3721V95.93H25.6055V94.8393Z" fill="#475059"/>
<path d="M103.357 30.8513H102.266V33.0847H103.357V30.8513Z" fill="#475059"/>
<path d="M103.357 36.4087H102.266V38.6421H103.357V36.4087Z" fill="#475059"/>
<path d="M106.733 34.1754H104.5V35.2661H106.733V34.1754Z" fill="#475059"/>
<path d="M101.176 34.1754H98.9424V35.2661H101.176V34.1754Z" fill="#475059"/>
<path d="M53.3925 50.5359L83.6205 20.3078C75.622 12.2574 64.715 7.7388 53.3925 7.7388V50.5359Z" fill="#FFC0CC"/>
<path d="M23.1124 80.764C31.1109 88.8145 42.018 93.3331 53.3405 93.3331V50.5359L23.1124 80.764Z" fill="#E50B5B"/>
<path d="M53.3925 50.5359H96.1896C96.1896 39.2134 91.671 28.3064 83.6725 20.3079L53.3925 50.5359Z" fill="#E50B5B"/>
<path d="M53.3925 50.5359V93.3331C77.0244 93.2811 96.1377 74.1679 96.1896 50.5359H53.3925Z" fill="#FFD15D"/>
<path d="M53.3925 50.5359L23.1125 20.3079C6.44029 36.98 6.38835 63.9879 23.0605 80.7121L23.1125 80.764L53.3925 50.5359Z" fill="#FFC0CC"/>
<path d="M75.726 12.621C68.974 8.62175 61.2872 6.49229 53.4445 6.49229H53.3926V5.40158H53.4445C61.4949 5.40158 69.3895 7.58299 76.2973 11.6861L75.726 12.621Z" fill="#475059"/>
<path d="M53.3925 95.4106C48.6661 95.4106 43.8878 94.6315 39.2134 93.1253C27.7869 89.3338 18.5419 81.3873 13.1404 70.636C5.92094 56.3011 6.90776 39.0576 15.7373 25.6575L16.6722 26.2808C8.0504 39.3692 7.11552 56.1453 14.1272 70.1686C19.4249 80.6601 28.4102 88.4509 39.5769 92.0865C50.6917 95.7742 62.5856 94.8912 73.0771 89.5935C83.5686 84.2958 91.3594 75.3105 94.9951 64.1438C98.6307 52.977 97.7997 41.1351 92.502 30.6436L93.4889 30.1242C98.8904 40.8754 99.7734 53.0809 96.0338 64.4554C92.2943 75.8299 84.2958 85.1268 73.5446 90.5284C67.26 93.8005 60.3522 95.4106 53.3925 95.4106Z" fill="#475059"/>
<path d="M53.6003 51.1073H52.8213L16.9319 15.2179L17.3474 14.8024C26.7483 5.40159 39.7328 0 53.029 0H53.6003L53.6523 0.571324V51.1073H53.6003ZM18.4901 15.2179L52.5096 49.2375V1.14264C39.8367 1.24652 27.5273 6.33647 18.4901 15.2179Z" fill="#475059"/>
<path d="M2.07764 53.029L1.29857 52.198L18.0746 35.9933L30.3321 48.1988L53.133 25.3979L65.3904 37.6034L97.4363 5.55743L98.2154 6.33651L65.3904 39.1615L53.133 26.956L30.3321 49.8088L18.0746 37.5514L2.07764 53.029Z" fill="#475059"/>
<path d="M98.3712 10.3877H97.2805V6.49232H93.3851V5.40161H98.3712V10.3877Z" fill="#475059"/>
<path d="M30.3322 51.7825C31.8525 51.7825 33.0849 50.55 33.0849 49.0297C33.0849 47.5095 31.8525 46.277 30.3322 46.277C28.8119 46.277 27.5795 47.5095 27.5795 49.0297C27.5795 50.55 28.8119 51.7825 30.3322 51.7825Z" fill="white"/>
<path d="M30.3321 52.3538C28.5142 52.3538 27.008 50.8476 27.008 49.0297C27.008 47.2119 28.5142 45.7057 30.3321 45.7057C32.1499 45.7057 33.6561 47.2119 33.6561 49.0297C33.6561 50.8476 32.1499 52.3538 30.3321 52.3538ZM30.3321 46.7964C29.0855 46.7964 28.0987 47.7832 28.0987 49.0297C28.0987 50.2763 29.0855 51.2631 30.3321 51.2631C31.5786 51.2631 32.5654 50.2763 32.5654 49.0297C32.5654 47.7832 31.5266 46.7964 30.3321 46.7964Z" fill="#475059"/>
<path d="M53.1329 28.9297C54.6531 28.9297 55.8856 27.6972 55.8856 26.1769C55.8856 24.6566 54.6531 23.4242 53.1329 23.4242C51.6126 23.4242 50.3801 24.6566 50.3801 26.1769C50.3801 27.6972 51.6126 28.9297 53.1329 28.9297Z" fill="white"/>
<path d="M53.1329 29.501C51.3151 29.501 49.8089 27.9948 49.8089 26.1769C49.8089 24.3591 51.3151 22.8529 53.1329 22.8529C54.9507 22.8529 56.4569 24.3591 56.4569 26.1769C56.4569 27.9948 55.0027 29.501 53.1329 29.501ZM53.1329 23.9436C51.8864 23.9436 50.8996 24.9304 50.8996 26.1769C50.8996 27.4234 51.8864 28.4103 53.1329 28.4103C54.3794 28.4103 55.3662 27.4234 55.3662 26.1769C55.3662 24.9304 54.3794 23.9436 53.1329 23.9436Z" fill="#475059"/>
<path d="M18.0746 39.5251C19.5949 39.5251 20.8273 38.2926 20.8273 36.7723C20.8273 35.2521 19.5949 34.0196 18.0746 34.0196C16.5543 34.0196 15.3218 35.2521 15.3218 36.7723C15.3218 38.2926 16.5543 39.5251 18.0746 39.5251Z" fill="white"/>
<path d="M18.0746 40.0964C16.2567 40.0964 14.7505 38.5902 14.7505 36.7723C14.7505 34.9545 16.2567 33.4483 18.0746 33.4483C19.8924 33.4483 21.3986 34.9545 21.3986 36.7723C21.3986 38.5902 19.9444 40.0964 18.0746 40.0964ZM18.0746 34.539C16.8281 34.539 15.8412 35.5258 15.8412 36.7723C15.8412 38.0188 16.8281 39.0057 18.0746 39.0057C19.3211 39.0057 20.3079 38.0188 20.3079 36.7723C20.3079 35.5258 19.3211 34.539 18.0746 34.539Z" fill="#475059"/>
<path d="M65.3905 41.1351C66.9108 41.1351 68.1432 39.9027 68.1432 38.3824C68.1432 36.8621 66.9108 35.6296 65.3905 35.6296C63.8702 35.6296 62.6378 36.8621 62.6378 38.3824C62.6378 39.9027 63.8702 41.1351 65.3905 41.1351Z" fill="white"/>
<path d="M65.3904 41.7064C63.5725 41.7064 62.0663 40.2002 62.0663 38.3824C62.0663 36.5646 63.5725 35.0583 65.3904 35.0583C67.2082 35.0583 68.7144 36.5646 68.7144 38.3824C68.7144 40.2002 67.2082 41.7064 65.3904 41.7064ZM65.3904 36.149C64.1439 36.149 63.157 37.1359 63.157 38.3824C63.157 39.6289 64.1439 40.6157 65.3904 40.6157C66.6369 40.6157 67.6237 39.6289 67.6237 38.3824C67.6237 37.1359 66.585 36.149 65.3904 36.149Z" fill="#475059"/>
<path d="M8.88138 17.0357H7.79068V19.2691H8.88138V17.0357Z" fill="#475059"/>
<path d="M8.88135 22.5931H7.79065V24.8265H8.88135V22.5931Z" fill="#475059"/>
<path d="M12.2573 20.4117H10.024V21.5024H12.2573V20.4117Z" fill="#475059"/>
<path d="M6.70002 20.4117H4.46667V21.5024H6.70002V20.4117Z" fill="#475059"/>
<path d="M106.11 57.1321H60.2484V102.214H106.11V57.1321Z" fill="white"/>
<path d="M106.11 57.0801H60.3004V70.4283H106.11V57.0801Z" fill="#DEDEDD"/>
<path d="M106.681 102.63H67.7794V101.487H105.59V80.4004H106.681V102.63Z" fill="#475059"/>
<path d="M64.4554 102.63H59.781V56.5088H106.681V77.0764H105.591V57.5995H60.8717V101.487H64.4554V102.63Z" fill="#475059"/>
<path d="M65.5981 65.9616C66.8315 65.9616 67.8314 64.9617 67.8314 63.7282C67.8314 62.4948 66.8315 61.4949 65.5981 61.4949C64.3647 61.4949 63.3647 62.4948 63.3647 63.7282C63.3647 64.9617 64.3647 65.9616 65.5981 65.9616Z" fill="white"/>
<path d="M65.598 66.481C64.0918 66.481 62.8453 65.2345 62.8453 63.7282C62.8453 62.222 64.0918 60.9755 65.598 60.9755C67.1042 60.9755 68.3507 62.222 68.3507 63.7282C68.3507 65.2345 67.1042 66.481 65.598 66.481ZM65.598 62.0662C64.6631 62.0662 63.936 62.7934 63.936 63.7282C63.936 64.6631 64.6631 65.3903 65.598 65.3903C66.5329 65.3903 67.26 64.6631 67.26 63.7282C67.26 62.7934 66.5329 62.0662 65.598 62.0662Z" fill="#475059"/>
<path d="M72.5577 65.9616C73.7912 65.9616 74.7911 64.9617 74.7911 63.7282C74.7911 62.4948 73.7912 61.4949 72.5577 61.4949C71.3243 61.4949 70.3244 62.4948 70.3244 63.7282C70.3244 64.9617 71.3243 65.9616 72.5577 65.9616Z" fill="white"/>
<path d="M72.5578 66.481C71.0516 66.481 69.8051 65.2345 69.8051 63.7282C69.8051 62.222 71.0516 60.9755 72.5578 60.9755C74.064 60.9755 75.3105 62.222 75.3105 63.7282C75.3105 65.2345 74.064 66.481 72.5578 66.481ZM72.5578 62.0662C71.6229 62.0662 70.8958 62.7934 70.8958 63.7282C70.8958 64.6631 71.6229 65.3903 72.5578 65.3903C73.4927 65.3903 74.2198 64.6631 74.2198 63.7282C74.2198 62.7934 73.4408 62.0662 72.5578 62.0662Z" fill="#475059"/>
<path d="M79.206 65.9616C80.4395 65.9616 81.4394 64.9617 81.4394 63.7282C81.4394 62.4948 80.4395 61.4949 79.206 61.4949C77.9726 61.4949 76.9727 62.4948 76.9727 63.7282C76.9727 64.9617 77.9726 65.9616 79.206 65.9616Z" fill="white"/>
<path d="M79.2059 66.481C77.6997 66.481 76.4532 65.2345 76.4532 63.7282C76.4532 62.222 77.6997 60.9755 79.2059 60.9755C80.7121 60.9755 81.9587 62.222 81.9587 63.7282C81.9587 65.2345 80.7121 66.481 79.2059 66.481ZM79.2059 62.0662C78.271 62.0662 77.5439 62.7934 77.5439 63.7282C77.5439 64.6631 78.271 65.3903 79.2059 65.3903C80.1408 65.3903 80.868 64.6631 80.868 63.7282C80.868 62.7934 80.1408 62.0662 79.2059 62.0662Z" fill="#475059"/>
<path d="M68.3506 94.5277H65.0266V97.8517H68.3506V94.5277Z" fill="#FFC0CC"/>
<path d="M72.8174 88.9702H69.4933V97.8517H72.8174V88.9702Z" fill="#FFC0CC"/>
<path d="M77.2321 80.0888H73.9081V97.8517H77.2321V80.0888Z" fill="#FFC0CC"/>
<path d="M81.6988 83.4129H78.3747V97.8517H81.6988V83.4129Z" fill="#FFC0CC"/>
<path d="M86.1135 86.7369H82.7895V97.8517H86.1135V86.7369Z" fill="#FFC0CC"/>
<path d="M90.5802 78.9462H87.2562V97.8517H90.5802V78.9462Z" fill="#FFC0CC"/>
<path d="M95.047 78.9462H91.7229V97.8517H95.047V78.9462Z" fill="#FFC0CC"/>
<path d="M99.4617 74.5314H96.1377V97.8517H99.4617V74.5314Z" fill="#FFC0CC"/>
<path d="M102.526 98.9424H63.3647V72.5578H64.5073V97.8517H102.526V98.9424Z" fill="#475059"/>
<path d="M64.2995 97.2284L63.5205 96.3974L73.7523 86.2175L77.8554 90.3206L89.5415 79.05L92.8136 82.3222L102.37 72.7655L103.149 73.5446L92.8136 83.8803L89.5415 80.6082L77.8554 91.8788L73.7523 87.7757L64.2995 97.2284Z" fill="#475059"/>
<path d="M103.305 78.1151H102.215V73.7523H97.8517V72.6097H103.305V78.1151Z" fill="#475059"/>
<path d="M98.9424 12.8807L97.9036 14.9582L95.5664 15.3218L97.2804 16.9838L96.8649 19.2691L98.9424 18.1784L101.072 19.2691L100.656 16.9838L102.318 15.3218L100.033 14.9582L98.9424 12.8807Z" fill="#FFD15D"/>
<path d="M82.3222 7.0636L81.2314 9.19307L78.9462 9.5047L80.6082 11.1667L80.1927 13.504L82.3222 12.3613L84.3997 13.504L83.9842 11.1667L85.6981 9.5047L83.3609 9.19307L82.3222 7.0636Z" fill="#FFD15D"/>
<path d="M0.571321 54.2755C0.886853 54.2755 1.14264 54.0197 1.14264 53.7042C1.14264 53.3886 0.886853 53.1328 0.571321 53.1328C0.255789 53.1328 0 53.3886 0 53.7042C0 54.0197 0.255789 54.2755 0.571321 54.2755Z" fill="#475059"/>
<path d="M17.2436 24.8784C17.5591 24.8784 17.8149 24.6226 17.8149 24.3071C17.8149 23.9916 17.5591 23.7358 17.2436 23.7358C16.928 23.7358 16.6722 23.9916 16.6722 24.3071C16.6722 24.6226 16.928 24.8784 17.2436 24.8784Z" fill="#475059"/>
<path d="M92.2943 29.6048C92.6099 29.6048 92.8657 29.349 92.8657 29.0335C92.8657 28.718 92.6099 28.4622 92.2943 28.4622C91.9788 28.4622 91.723 28.718 91.723 29.0335C91.723 29.349 91.9788 29.6048 92.2943 29.6048Z" fill="#475059"/>
<path d="M77.2841 13.6598C77.5996 13.6598 77.8554 13.404 77.8554 13.0884C77.8554 12.7729 77.5996 12.5171 77.2841 12.5171C76.9686 12.5171 76.7128 12.7729 76.7128 13.0884C76.7128 13.404 76.9686 13.6598 77.2841 13.6598Z" fill="#475059"/>
<path d="M106.162 79.3097C106.477 79.3097 106.733 79.0539 106.733 78.7384C106.733 78.4229 106.477 78.1671 106.162 78.1671C105.846 78.1671 105.591 78.4229 105.591 78.7384C105.591 79.0539 105.846 79.3097 106.162 79.3097Z" fill="#475059"/>
<path d="M66.1694 102.63C66.4849 102.63 66.7407 102.374 66.7407 102.059C66.7407 101.743 66.4849 101.487 66.1694 101.487C65.8538 101.487 65.5981 101.743 65.5981 102.059C65.5981 102.374 65.8538 102.63 66.1694 102.63Z" fill="#475059"/>
</svg>
