<svg width="90" height="103" viewBox="0 0 90 103" fill="none" xmlns="http://www.w3.org/2000/svg">
<path d="M15.4848 94.6189C16.3751 94.6189 17.0968 93.8972 17.0968 93.0069C17.0968 92.1166 16.3751 91.3949 15.4848 91.3949C14.5945 91.3949 13.8728 92.1166 13.8728 93.0069C13.8728 93.8972 14.5945 94.6189 15.4848 94.6189Z" fill="#FFC0CC"/>
<path d="M86.217 28.625C87.1072 28.625 87.829 27.9033 87.829 27.0131C87.829 26.1228 87.1072 25.4011 86.217 25.4011C85.3267 25.4011 84.605 26.1228 84.605 27.0131C84.605 27.9033 85.3267 28.625 86.217 28.625Z" fill="#FFC0CC"/>
<path d="M3.61479 76.8382C4.50507 76.8382 5.22679 76.1165 5.22679 75.2262C5.22679 74.3359 4.50507 73.6142 3.61479 73.6142C2.72451 73.6142 2.00281 74.3359 2.00281 75.2262C2.00281 76.1165 2.72451 76.8382 3.61479 76.8382Z" fill="#E50B5B"/>
<path d="M86.217 76.8382C87.1072 76.8382 87.829 76.1165 87.829 75.2262C87.829 74.3359 87.1072 73.6142 86.217 73.6142C85.3267 73.6142 84.605 74.3359 84.605 75.2262C84.605 76.1165 85.3267 76.8382 86.217 76.8382Z" fill="#FFD15D"/>
<path d="M11.8702 8.54843H10.7955V10.7466H11.8702V8.54843Z" fill="#475059"/>
<path d="M11.8702 13.9706H10.7955V16.1687H11.8702V13.9706Z" fill="#475059"/>
<path d="M15.1919 11.7724H12.9938V12.8471H15.1919V11.7724Z" fill="#475059"/>
<path d="M9.72087 11.7724H7.52271V12.8471H9.72087V11.7724Z" fill="#475059"/>
<path d="M77.6197 87.5848H76.545V89.7829H77.6197V87.5848Z" fill="#475059"/>
<path d="M77.6196 93.0069H76.5449V95.2051H77.6196V93.0069Z" fill="#475059"/>
<path d="M80.9413 90.8576H78.7432V91.9323H80.9413V90.8576Z" fill="#475059"/>
<path d="M75.4704 90.8576H73.2722V91.9323H75.4704V90.8576Z" fill="#475059"/>
<path d="M44.9403 87.194C25.1079 87.194 8.98804 71.0741 8.98804 51.2417C8.98804 31.4094 25.1079 15.2895 44.9403 15.2895C52.2187 15.2895 59.2528 17.4388 65.2611 21.5909L64.6261 22.4702C58.8132 18.4646 52.0233 16.3641 44.9403 16.3641C25.6941 16.3641 10.0627 31.9956 10.0627 51.2417C10.0627 70.4879 25.6941 86.1193 44.9403 86.1193C64.1865 86.1193 79.8179 70.4879 79.8179 51.2417C79.8179 41.0325 75.3727 31.3605 67.6058 24.7172L68.3386 23.8868C76.3497 30.7255 80.9414 40.6905 80.9414 51.2417C80.8925 71.0741 64.7726 87.194 44.9403 87.194Z" fill="#475059"/>
<path d="M61.4021 63.2584V55.5404H56.3707L48.7993 47.9689V37.8573H66.1892V26.2803H64.2353L60.3763 30.1393L62.3302 32.0932L60.3763 34.0472L58.4224 32.0932H54.5634L50.7044 35.9522H48.7504V24.3752H58.4224V22.4213H50.7044L54.2214 18.9042C51.2417 18.0738 48.1642 17.5853 44.8914 17.5853C41.5209 17.5853 38.2969 18.0738 35.2195 19.0019V35.9522L27.5015 41.7652V49.4832H41.0813V76.4962H39.1273L25.5964 62.9653V51.3883H19.7835L11.7724 44.6961C11.3327 46.8454 11.0885 49.0924 11.0885 51.3883C11.0885 70.0483 26.2314 85.1912 44.8914 85.1912C56.3707 85.1912 66.5312 79.476 72.6372 70.7321H68.827L61.4021 63.2584Z" fill="#FFC0CC"/>
<path d="M74.0536 55.5404V68.534C75.6656 65.7985 76.9356 62.7699 77.7172 59.5948L74.0536 55.5404Z" fill="#FFC0CC"/>
<path d="M25.5963 51.3883V49.4343H27.5503V41.7163L35.2683 35.9034V18.9531C23.3982 22.4702 14.2636 32.3375 11.8212 44.6472L19.8323 51.3394H25.5963V51.3883Z" fill="white"/>
<path d="M25.5963 51.3883V62.9653L39.1273 76.4962H41.0812V49.4344H27.5502V51.3883H25.5963Z" fill="white"/>
<path d="M27.5502 49.4344H25.5963V51.3883H27.5502V49.4344Z" fill="white"/>
<path d="M77.7173 59.5948C78.3523 56.957 78.7431 54.2215 78.7431 51.3883C78.7431 35.9522 68.3873 22.9586 54.2702 18.9042L50.7531 22.4213H58.4711V24.3752H48.7992V35.9522H50.7531L54.6121 32.0932H58.4711L60.4251 34.0472L62.379 32.0932L60.4251 30.1393L64.2841 26.2803H66.238V37.8573H48.848V47.9689L56.4195 55.5404H61.4509V63.2584L68.8758 70.6833H72.686C73.1744 69.9994 73.6629 69.2667 74.0537 68.534V55.5404L77.7173 59.5948Z" fill="white"/>
<path d="M42.233 5.40532L41.7015 4.47122L34.993 8.28778L35.5245 9.22187L42.233 5.40532Z" fill="#475059"/>
<path d="M32.4408 10.9461L31.9094 10.012L5.75479 24.8917L6.28621 25.8258L32.4408 10.9461Z" fill="#475059"/>
<path d="M42.4236 97.222L6.47888 76.4407L5.94101 77.3711L41.8857 98.1523L42.4236 97.222Z" fill="#475059"/>
<path d="M83.842 77.523L83.304 76.5927L47.5326 97.2844L48.0706 98.2147L83.842 77.523Z" fill="#475059"/>
<path d="M83.9615 24.8627L47.9989 4.40308L47.4675 5.33716L83.4301 25.7968L83.9615 24.8627Z" fill="#475059"/>
<path d="M3.61476 30.6767C1.61199 30.6767 0 29.0646 0 27.0619C0 25.0591 1.61199 23.4471 3.61476 23.4471C5.61754 23.4471 7.22954 25.0591 7.22954 27.0619C7.22954 29.0646 5.61754 30.6767 3.61476 30.6767ZM3.61476 24.5218C2.19816 24.5218 1.07467 25.6453 1.07467 27.0619C1.07467 28.4785 2.19816 29.602 3.61476 29.602C5.03136 29.602 6.15487 28.4785 6.15487 27.0619C6.15487 25.6453 5.03136 24.5218 3.61476 24.5218Z" fill="#475059"/>
<path d="M3.61476 78.8898C1.61199 78.8898 0 77.2778 0 75.275C0 73.2723 1.61199 71.6603 3.61476 71.6603C5.61754 71.6603 7.22954 73.2723 7.22954 75.275C7.22954 77.2778 5.61754 78.8898 3.61476 78.8898ZM3.61476 72.6861C2.19816 72.6861 1.07467 73.8096 1.07467 75.2262C1.07467 76.6428 2.19816 77.7663 3.61476 77.7663C5.03136 77.7663 6.15487 76.6428 6.15487 75.2262C6.15487 73.8096 5.03136 72.6861 3.61476 72.6861Z" fill="#475059"/>
<path d="M86.2171 30.6767C84.2143 30.6767 82.6023 29.0646 82.6023 27.0619C82.6023 25.0591 84.2143 23.4471 86.2171 23.4471C88.2198 23.4471 89.8318 25.0591 89.8318 27.0619C89.8318 29.0646 88.2198 30.6767 86.2171 30.6767ZM86.2171 24.5218C84.8005 24.5218 83.677 25.6453 83.677 27.0619C83.677 28.4785 84.8005 29.602 86.2171 29.602C87.6337 29.602 88.7572 28.4785 88.7572 27.0619C88.7572 25.6453 87.6337 24.5218 86.2171 24.5218Z" fill="#475059"/>
<path d="M86.2171 78.8898C84.2143 78.8898 82.6023 77.2778 82.6023 75.275C82.6023 73.2723 84.2143 71.6603 86.2171 71.6603C88.2198 71.6603 89.8318 73.2723 89.8318 75.275C89.8318 77.2778 88.2198 78.8898 86.2171 78.8898ZM86.2171 72.6861C84.8005 72.6861 83.677 73.8096 83.677 75.2262C83.677 76.6428 84.8005 77.7663 86.2171 77.7663C87.6337 77.7663 88.7572 76.6428 88.7572 75.2262C88.7572 73.8096 87.6337 72.6861 86.2171 72.6861Z" fill="#475059"/>
<path d="M45.4776 6.6922H44.403V12.4563H45.4776V6.6922Z" fill="#475059"/>
<path d="M45.4776 90.2714H44.403V95.889H45.4776V90.2714Z" fill="#475059"/>
<path d="M14.7811 32.8816L6.54065 28.1046L6.00171 29.0343L14.2421 33.8113L14.7811 32.8816Z" fill="#475059"/>
<path d="M83.8207 73.1404L75.8834 68.5202L75.3428 69.4491L83.28 74.0693L83.8207 73.1404Z" fill="#475059"/>
<path d="M29.076 61.0179L28.5347 60.0895L5.99991 73.2285L6.54121 74.1569L29.076 61.0179Z" fill="#475059"/>
<path d="M64.5425 40.4566L63.9994 39.5293L59.7421 42.0227L60.2853 42.9501L64.5425 40.4566Z" fill="#475059"/>
<path d="M83.8073 28.9732L83.2618 28.0473L66.5952 37.8663L67.1407 38.7922L83.8073 28.9732Z" fill="#475059"/>
<path d="M43.5553 6.32955L42.6212 5.79813L36.6065 16.3704L37.5406 16.9018L43.5553 6.32955Z" fill="#475059"/>
<path d="M11.6039 62.4261L10.665 61.903L4.81653 72.4008L5.75535 72.9238L11.6039 62.4261Z" fill="#475059"/>
<path d="M43.7741 96.1439L25.4535 64.0783L24.5204 64.6114L42.8409 96.6771L43.7741 96.1439Z" fill="#475059"/>
<path d="M23.9353 61.4599L20.0822 54.7159L19.149 55.2491L23.0022 61.993L23.9353 61.4599Z" fill="#475059"/>
<path d="M17.9898 51.0325L5.65491 29.4433L4.72179 29.9765L17.0567 51.5656L17.9898 51.0325Z" fill="#475059"/>
<path d="M57.44 23.7069L47.2052 5.81406L46.2724 6.34762L56.5072 24.2405L57.44 23.7069Z" fill="#475059"/>
<path d="M72.0656 49.1941L59.0634 26.4676L58.1305 27.0013L71.1328 49.7278L72.0656 49.1941Z" fill="#475059"/>
<path d="M85.2495 72.2361L73.7755 52.1808L72.8427 52.7145L84.3167 72.7698L85.2495 72.2361Z" fill="#475059"/>
<path d="M47.0408 96.6705L46.1127 96.1332L62.3303 67.7524L67.8501 58.1293L82.2603 32.826L83.2373 33.3633L68.8271 58.6667L63.3072 68.2898L47.0408 96.6705Z" fill="#475059"/>
<path d="M4.15217 30.1393H3.07751V44.9403H4.15217V30.1393Z" fill="#475059"/>
<path d="M4.15217 49.4832H3.07751V72.1488H4.15217V49.4832Z" fill="#475059"/>
<path d="M86.7544 30.1393H85.6797V72.1487H86.7544V30.1393Z" fill="#475059"/>
<path d="M83.5304 32.0933C83.8271 32.0933 84.0677 31.8527 84.0677 31.5559C84.0677 31.2592 83.8271 31.0186 83.5304 31.0186C83.2336 31.0186 82.993 31.2592 82.993 31.5559C82.993 31.8527 83.2336 32.0933 83.5304 32.0933Z" fill="#475059"/>
<path d="M44.8914 89.1967C45.1882 89.1967 45.4288 88.9562 45.4288 88.6594C45.4288 88.3626 45.1882 88.1221 44.8914 88.1221C44.5947 88.1221 44.3541 88.3626 44.3541 88.6594C44.3541 88.9562 44.5947 89.1967 44.8914 89.1967Z" fill="#475059"/>
<path d="M66.4335 23.496C66.7302 23.496 66.9708 23.2554 66.9708 22.9586C66.9708 22.6619 66.7302 22.4213 66.4335 22.4213C66.1367 22.4213 65.8961 22.6619 65.8961 22.9586C65.8961 23.2554 66.1367 23.496 66.4335 23.496Z" fill="#475059"/>
<path d="M57.6897 25.9384C57.9864 25.9384 58.227 25.6978 58.227 25.401C58.227 25.1043 57.9864 24.8637 57.6897 24.8637C57.3929 24.8637 57.1523 25.1043 57.1523 25.401C57.1523 25.6978 57.3929 25.9384 57.6897 25.9384Z" fill="#475059"/>
<path d="M58.8132 43.7191C59.11 43.7191 59.3505 43.4785 59.3505 43.1818C59.3505 42.885 59.11 42.6445 58.8132 42.6445C58.5164 42.6445 58.2759 42.885 58.2759 43.1818C58.2759 43.4785 58.5164 43.7191 58.8132 43.7191Z" fill="#475059"/>
<path d="M29.9928 60.3275C30.2895 60.3275 30.5301 60.0869 30.5301 59.7902C30.5301 59.4934 30.2895 59.2528 29.9928 59.2528C29.696 59.2528 29.4554 59.4934 29.4554 59.7902C29.4554 60.0869 29.696 60.3275 29.9928 60.3275Z" fill="#475059"/>
<path d="M18.9531 54.368C19.2499 54.368 19.4904 54.1275 19.4904 53.8307C19.4904 53.5339 19.2499 53.2934 18.9531 53.2934C18.6563 53.2934 18.4158 53.5339 18.4158 53.8307C18.4158 54.1275 18.6563 54.368 18.9531 54.368Z" fill="#475059"/>
<path d="M18.0738 52.8537C18.3706 52.8537 18.6112 52.6131 18.6112 52.3164C18.6112 52.0196 18.3706 51.7791 18.0738 51.7791C17.7771 51.7791 17.5365 52.0196 17.5365 52.3164C17.5365 52.6131 17.7771 52.8537 18.0738 52.8537Z" fill="#475059"/>
<path d="M3.61483 46.65C3.91159 46.65 4.15217 46.4094 4.15217 46.1127C4.15217 45.8159 3.91159 45.5753 3.61483 45.5753C3.31807 45.5753 3.07751 45.8159 3.07751 46.1127C3.07751 46.4094 3.31807 46.65 3.61483 46.65Z" fill="#475059"/>
<path d="M3.61483 48.6039C3.91159 48.6039 4.15217 48.3633 4.15217 48.0666C4.15217 47.7698 3.91159 47.5293 3.61483 47.5293C3.31807 47.5293 3.07751 47.7698 3.07751 48.0666C3.07751 48.3633 3.31807 48.6039 3.61483 48.6039Z" fill="#475059"/>
<path d="M44.9403 14.5568C45.237 14.5568 45.4776 14.3162 45.4776 14.0194C45.4776 13.7227 45.237 13.4821 44.9403 13.4821C44.6435 13.4821 44.403 13.7227 44.403 14.0194C44.403 14.3162 44.6435 14.5568 44.9403 14.5568Z" fill="#475059"/>
<path d="M33.803 10.1604C34.0997 10.1604 34.3403 9.91985 34.3403 9.62309C34.3403 9.32633 34.0997 9.08575 33.803 9.08575C33.5062 9.08575 33.2656 9.32633 33.2656 9.62309C33.2656 9.91985 33.5062 10.1604 33.803 10.1604Z" fill="#475059"/>
<path d="M44.9403 7.22953C42.9375 7.22953 41.3256 5.61754 41.3256 3.61477C41.3256 1.61199 42.9375 0 44.9403 0C46.9431 0 48.5551 1.61199 48.5551 3.61477C48.5551 5.61754 46.9431 7.22953 44.9403 7.22953ZM44.9403 1.07467C43.5237 1.07467 42.4002 2.19817 42.4002 3.61477C42.4002 5.03137 43.5237 6.15487 44.9403 6.15487C46.3569 6.15487 47.4804 5.03137 47.4804 3.61477C47.4804 2.19817 46.3081 1.07467 44.9403 1.07467Z" fill="#475059"/>
<path d="M44.9403 102.63C42.9375 102.63 41.3256 101.018 41.3256 99.0152C41.3256 97.0125 42.9375 95.4005 44.9403 95.4005C46.9431 95.4005 48.5551 97.0125 48.5551 99.0152C48.5551 100.969 46.9431 102.63 44.9403 102.63ZM44.9403 96.4751C43.5237 96.4751 42.4002 97.5986 42.4002 99.0152C42.4002 100.432 43.5237 101.555 44.9403 101.555C46.3569 101.555 47.4804 100.432 47.4804 99.0152C47.4804 97.5986 46.3081 96.4751 44.9403 96.4751Z" fill="#475059"/>
<path d="M33.5098 47.1873L34.5845 44.1588H37.955L39.0297 47.1873L41.4721 48.1643L44.3053 46.7966L46.6989 49.1901L45.3311 52.0722L46.3569 54.5146L49.3366 55.5892V58.9109L46.3569 59.9856L45.3311 62.428L46.6989 65.31L44.3053 67.6547L41.4721 66.287L39.0297 67.3128L37.955 70.3414H34.5845L33.5098 67.3128L31.0674 66.287L28.1854 67.6547L25.8407 65.31L27.2084 62.428L26.1826 59.9856L23.2029 58.9109V55.5892L26.1826 54.5146L27.2084 52.0722L25.8407 49.1901L28.1854 46.7966L31.0674 48.1643L33.5098 47.1873Z" fill="white"/>
<path d="M38.3458 70.8787H34.2426L33.1191 67.7524L31.1163 66.922L28.0877 68.3386L25.1568 65.4077L26.5734 62.3791L25.743 60.3763L22.6167 59.2528V55.1496L25.743 54.0261L26.5734 52.0233L25.1568 48.9947L28.0877 46.0638L31.1163 47.4804L33.1191 46.65L34.2426 43.5237H38.3458L39.4693 46.65L41.4721 47.4804L44.5007 46.0638L47.4316 48.9947L46.015 52.0233L46.8454 54.0261L49.9717 55.1496V59.2528L46.8454 60.3763L46.015 62.3791L47.4316 65.4077L44.5007 68.3386L41.4721 66.922L39.4693 67.7524L38.3458 70.8787ZM34.9753 69.7552H37.5642L38.59 66.8731L41.4721 65.7008L44.2076 67.0197L46.015 65.2123L44.6961 62.4768L45.8684 59.5948L48.7505 58.5689V55.98L45.8684 54.9542L44.6961 52.0721L46.015 49.3366L44.2076 47.5293L41.4721 48.8482L38.59 47.6758L37.5642 44.7938H34.9753L33.9495 47.6758L31.0674 48.8482L28.3319 47.5293L26.5246 49.3366L27.8434 52.0721L26.6711 54.9542L23.7891 55.98V58.5689L26.6711 59.5948L27.8434 62.4768L26.5246 65.2123L28.3319 67.0197L31.0674 65.7008L33.9495 66.8731L34.9753 69.7552Z" fill="#475059"/>
<path d="M36.2453 62.5745C33.3145 62.5745 30.9209 60.1809 30.9209 57.25C30.9209 54.3192 33.3145 51.9256 36.2453 51.9256C39.1762 51.9256 41.5698 54.3192 41.5698 57.25C41.6186 60.1809 39.2251 62.5745 36.2453 62.5745ZM36.2453 53.0002C33.9006 53.0002 31.9955 54.9053 31.9955 57.25C31.9955 59.5948 33.9006 61.4998 36.2453 61.4998C38.5901 61.4998 40.4951 59.5948 40.4951 57.25C40.4951 54.9053 38.5901 53.0002 36.2453 53.0002Z" fill="#475059"/>
<path d="M36.2453 59.4482C37.4593 59.4482 38.4435 58.4641 38.4435 57.25C38.4435 56.036 37.4593 55.0519 36.2453 55.0519C35.0313 55.0519 34.0471 56.036 34.0471 57.25C34.0471 58.4641 35.0313 59.4482 36.2453 59.4482Z" fill="#E50B5B"/>
<path d="M36.2453 65.2611C31.849 65.2611 28.2343 61.6464 28.2343 57.25C28.2343 52.8537 31.849 49.239 36.2453 49.239C40.6417 49.239 44.2564 52.8537 44.2564 57.25C44.2564 61.6464 40.6905 65.2611 36.2453 65.2611ZM36.2453 50.8509C32.7283 50.8509 29.8462 53.733 29.8462 57.25C29.8462 60.7671 32.7283 63.6492 36.2453 63.6492C39.7624 63.6492 42.6445 60.7671 42.6445 57.25C42.6445 53.733 39.7624 50.8509 36.2453 50.8509Z" fill="#DEDEDD"/>
</svg>
