<svg width="100" height="103" viewBox="0 0 100 103" fill="none" xmlns="http://www.w3.org/2000/svg">
<path d="M23.7209 34.1388C22.1716 34.4059 20.6222 34.0854 19.2866 33.1771C19.1797 33.1237 19.0729 33.0168 19.0195 32.9634L22.8127 30.2922L40.2828 22.0647C40.2828 22.0647 48.8308 22.0647 48.724 22.0647C47.8691 22.3318 24.4689 34.0319 23.7209 34.1388Z" fill="#DEDEDD"/>
<path d="M88.7929 3.41922C88.7394 2.88497 89.1668 2.40414 89.7545 2.35071C89.8079 2.35071 89.8079 2.35071 89.8614 2.35071L93.6011 2.24387V9.83025H89.8079C89.4874 9.83025 89.2202 9.72341 89.0065 9.50971C88.7928 9.29601 88.686 8.97546 88.686 8.70833L88.7929 3.41922Z" fill="#DEDEDD"/>
<path d="M17.5235 30.8264C15.0125 30.8264 12.4481 29.7045 10.2577 27.514L9.77686 27.0332L34.3525 11.9673H34.4594L75.864 3.95346H87.1367V5.02197H75.9708L34.7799 12.9823L11.5399 27.2469C14.6386 30.025 18.3783 30.5058 21.6907 28.5825L36.2758 21.5838H61.2789V22.6523H51.502C47.4417 22.5455 43.9691 25.6441 43.6485 29.7045L69.6132 29.5976C71.8571 29.5976 73.9941 28.6894 75.5968 27.0866L86.7093 15.9742L87.4573 16.7221L76.3448 27.8346C74.5283 29.5976 72.1242 30.6127 69.6132 30.6127L42.5266 30.7195V30.1853C42.5266 26.9798 44.2896 24.0948 47.0677 22.5989H36.4895L22.1715 29.4908C20.7825 30.399 19.1797 30.8264 17.5235 30.8264Z" fill="#48515A"/>
<path d="M22.6525 36.3826C20.9963 36.3826 19.3935 35.9018 18.0044 34.9401C17.2565 34.4059 16.6688 33.7648 16.1346 33.0168L15.8674 32.5894L21.6374 28.636L22.225 29.5442L17.3633 32.8565C17.7373 33.3374 18.1647 33.7114 18.6456 34.0853C20.1415 35.1538 22.0113 35.5812 23.8812 35.2073C25.0032 35.047 26.0717 34.673 27.1402 34.1922L43.8623 25.5373L44.3431 26.4989L27.621 35.1538C26.4991 35.6881 25.3237 36.0621 24.0949 36.2758C23.5607 36.3292 23.1333 36.3826 22.6525 36.3826Z" fill="#48515A"/>
<path d="M95.7382 23.24H89.808C87.9915 23.24 86.4956 21.7441 86.4956 19.9277L86.549 3.3658C86.549 1.54934 88.045 0.0534363 89.8614 0.0534363H95.7382V23.24ZM89.8614 1.17537C88.6326 1.17537 87.6176 2.19045 87.6176 3.41923L87.5641 19.9811C87.5641 21.2098 88.5792 22.2249 89.808 22.2249H94.6697V1.22879L89.8614 1.17537Z" fill="#48515A"/>
<path d="M61.2254 24.2551H48.7239C46.7472 24.8427 45.2513 26.4989 44.8773 28.5291H47.4417C48.5636 27.4606 49.9527 27.4606 51.4486 27.4606H58.0199C59.7829 27.4606 61.2254 26.0181 61.2254 24.2551Z" fill="#DEDEDD"/>
<path d="M16.6154 28.5291L35.2074 17.7372L76.1312 9.83026H85.4806V6.09048H76.1312L35.2074 13.9974L13.4633 27.3003C14.7455 28.1551 15.2263 28.5291 16.6154 28.5291Z" fill="#DEDEDD"/>
<path d="M84.412 100.493H83.3435V102.63H84.412V100.493Z" fill="#48515A"/>
<path d="M87.6175 98.356H85.4805V99.4245H87.6175V98.356Z" fill="#48515A"/>
<path d="M82.275 98.356H80.1379V99.4245H82.275V98.356Z" fill="#48515A"/>
<path d="M20.3016 0H19.2331V2.13701H20.3016V0Z" fill="#48515A"/>
<path d="M20.3015 5.34253H19.233V7.47954H20.3015V5.34253Z" fill="#48515A"/>
<path d="M23.5071 3.20551H21.3701V4.27401H23.5071V3.20551Z" fill="#48515A"/>
<path d="M18.1646 3.20551H16.0276V4.27401H18.1646V3.20551Z" fill="#48515A"/>
<path d="M4.27401 58.8213H3.20551V60.9583H4.27401V58.8213Z" fill="#48515A"/>
<path d="M4.27395 64.1638H3.20544V66.3008H4.27395V64.1638Z" fill="#48515A"/>
<path d="M7.47954 62.0268H5.34253V63.0953H7.47954V62.0268Z" fill="#48515A"/>
<path d="M2.13701 62.0268H0V63.0953H2.13701V62.0268Z" fill="#48515A"/>
<path d="M61.4391 31.7346C58.9815 38.4662 52.891 43.1676 45.732 43.8087V31.788H42.4731V43.7553C34.2456 43.0073 27.514 36.9168 26.0181 28.7962L22.7057 30.399C21.6372 31.0401 20.4084 31.4675 19.1797 31.6812L17.6303 32.4291C18.1646 34.0319 18.0043 33.6045 18.5385 35.2072L23.1866 34.4593C23.8277 35.7415 23.8276 35.6881 24.4687 36.9703L21.103 40.2826C22.0646 41.6183 21.7975 41.2977 22.8126 42.6334L27.0331 40.4964C28.0482 41.5114 27.9948 41.458 29.0099 42.4731L26.8195 46.6937C28.1551 47.7088 27.8345 47.3882 29.1702 48.4033L32.4825 45.0375C33.7647 45.6786 33.7113 45.6786 34.9935 46.3197L34.2456 50.9677C35.8483 51.502 35.4209 51.3417 37.0237 51.8759L39.1607 47.6553C40.5498 47.869 40.4963 47.869 41.9388 48.0827L42.6333 52.7307C44.2895 52.7307 43.8621 52.7307 45.5183 52.7307L46.2663 48.0827C47.6553 47.869 47.6019 47.869 49.0444 47.6553L51.1814 51.8759C52.7841 51.3417 52.3568 51.502 53.9595 50.9677L53.2115 46.3197C54.4938 45.6786 54.4403 45.6786 55.7225 45.0375L59.0349 48.4033C60.3706 47.4416 60.05 47.7088 61.3856 46.6937L59.2486 42.4731C60.2637 41.458 60.2103 41.5114 61.2253 40.4964L65.446 42.6868C66.4076 41.3511 66.1405 41.6717 67.1556 40.3361L63.7898 37.0237C64.4309 35.7415 64.4309 35.7949 65.072 34.5127L69.72 35.2607C70.2542 33.6579 70.094 34.0853 70.6282 32.4826L68.972 31.6278L61.4391 31.7346Z" fill="#FFC0CC"/>
<path d="M44.2361 40.3895C36.5963 40.3895 30.1853 34.673 29.3839 27.0332L30.4524 26.9263C31.2538 34.5661 38.1456 40.069 45.732 39.2141C50.4869 38.6799 54.6006 35.7949 56.6842 31.5209L57.6459 32.0017C55.1883 37.184 49.9526 40.4429 44.2361 40.3895Z" fill="#48515A"/>
<path d="M20.8358 99.2108C20.8892 99.745 20.4618 100.226 19.8742 100.279C19.8207 100.279 19.8207 100.279 19.7673 100.279L16.0275 100.386V92.7997H19.8207C20.1413 92.7997 20.4084 92.9066 20.6221 93.1203C20.8358 93.334 20.9427 93.6546 20.9427 93.9217L20.8358 99.2108Z" fill="#DEDEDD"/>
<path d="M33.7112 98.6765H22.4385V97.608H33.6044L74.7953 89.6476L98.0353 75.3831C94.9366 72.605 91.1969 72.1241 87.8845 74.0475L73.2994 81.0462H48.2963V79.9777H58.0732C62.1335 80.0845 65.6061 76.9858 65.9267 72.9255L39.962 73.0324C37.7181 73.0324 35.5811 73.9406 33.9783 75.5434L22.8659 86.6558L22.118 85.9079L33.2304 74.7954C35.0469 73.0324 37.451 72.0173 39.962 72.0173L67.0486 71.9104V72.4447C67.0486 75.6502 65.2856 78.5352 62.5075 80.0311H73.0857L87.4036 73.1392C91.3037 70.8419 95.738 71.5899 99.2641 75.116L99.7449 75.5968L75.1693 90.6627H75.0624L33.7112 98.6765Z" fill="#48515A"/>
<path d="M68.7583 75.5434L68.2775 74.5817L82.0078 67.4762C83.1297 66.9419 84.3051 66.5679 85.5339 66.3542C87.6174 65.9803 89.8079 66.4611 91.5709 67.6899C92.3189 68.2241 92.9066 68.8652 93.4408 69.6132L93.7614 70.0406L87.9914 73.994L87.4037 73.0858L92.2655 69.7734C91.8915 69.2926 91.4641 68.9186 90.9832 68.5447C89.4873 67.4762 87.6175 67.0488 85.7476 67.4227C84.6256 67.583 83.5572 67.957 82.4886 68.4378L68.7583 75.5434Z" fill="#48515A"/>
<path d="M19.7673 102.523H13.8905V79.39H19.8207C21.6372 79.39 23.1331 80.8859 23.1331 82.7024L23.0797 99.2642C23.0797 101.027 21.5837 102.523 19.7673 102.523ZM14.959 101.455H19.7673C20.9961 101.455 22.0112 100.44 22.0112 99.2108L22.0646 82.6489C22.0646 81.4201 21.0495 80.4051 19.8207 80.4051H14.959V101.455Z" fill="#48515A"/>
<path d="M48.3498 78.3749H60.9048C62.8815 77.7872 64.3774 76.1311 64.7514 74.1009H62.187C61.0651 75.1694 59.676 75.1694 58.1801 75.1694H51.6088C49.7923 75.1694 48.3498 76.6119 48.3498 78.3749Z" fill="#DEDEDD"/>
<path d="M93.0133 74.1009L74.4213 84.8928L33.4976 92.7997H24.1481V96.5395H33.4976L74.4213 88.6326L96.1654 75.3297C94.8832 74.4749 94.4024 74.1009 93.0133 74.1009Z" fill="#DEDEDD"/>
<path d="M84.412 95.1505H83.3435V97.2875H84.412V95.1505Z" fill="#48515A"/>
<path d="M40.0156 70.8954L68.1707 70.7885V72.3913C68.1707 74.7954 67.2625 77.1461 65.6597 78.9092H72.9255L86.9764 72.1242C87.1901 72.0173 87.4038 71.9105 87.6175 71.7502V56.4706L36.8635 56.524V71.3762C37.8251 71.0557 38.8936 70.8954 40.0156 70.8954Z" fill="#FFC0CC"/>
<path d="M85.6407 73.0324H84.5722V59.5158H39.8018V70.9488H38.7333V58.4473H85.6407V73.0324Z" fill="#48515A"/>
<path d="M66.8348 70.7351H65.7663C65.8197 70.0406 65.3389 69.3995 64.591 69.3461C64.5375 69.3461 64.4307 69.3461 64.3773 69.3461H59.8361C58.5005 69.3461 57.5388 68.1707 57.5388 66.6214V65.7666C57.5388 64.2706 58.447 63.309 59.8361 63.309H64.6978C65.7663 63.309 66.6745 64.1104 66.6745 65.2323V65.2857H65.606C65.606 64.8049 65.1786 64.4309 64.6978 64.4309C64.6978 64.4309 64.6978 64.4309 64.6444 64.4309H59.8361C58.821 64.4309 58.6073 65.1789 58.6073 65.82V66.6214C58.6073 67.4227 58.9813 68.2776 59.8361 68.2776H64.3773C65.6595 68.2241 66.7814 69.2392 66.7814 70.5214C66.8348 70.5748 66.8348 70.6817 66.8348 70.7351Z" fill="#48515A"/>
<path d="M62.721 61.4391H61.6525V70.8419H62.721V61.4391Z" fill="#48515A"/>
<path d="M75.2761 68.2775H70.3609V69.346H75.2761V68.2775Z" fill="#48515A"/>
<path d="M75.2761 71.5365H70.3609V72.605H75.2761V71.5365Z" fill="#48515A"/>
<path d="M75.2761 64.9651H70.3609V66.0337H75.2761V64.9651Z" fill="#48515A"/>
<path d="M54.0126 68.2775H49.0975V69.346H54.0126V68.2775Z" fill="#48515A"/>
<path d="M54.0127 64.9651H49.0976V66.0337H54.0127V64.9651Z" fill="#48515A"/>
<path d="M24.6825 69.1857C20.9427 69.1857 17.8975 66.1405 17.8975 62.4007C17.8975 58.661 20.9427 55.6157 24.6825 55.6157C28.4223 55.6157 31.4675 58.661 31.4675 62.4007C31.5209 66.1405 28.4223 69.1857 24.6825 69.1857ZM24.6825 56.6308C21.5304 56.6308 18.966 59.1952 18.966 62.3473C18.966 65.4994 21.5304 68.0638 24.6825 68.0638C27.8346 68.0638 30.399 65.4994 30.399 62.3473C30.399 59.1952 27.8346 56.6308 24.6825 56.6308Z" fill="#48515A"/>
<path d="M24.6825 69.1858C22.4921 69.1858 20.7825 66.194 20.7825 62.4008C20.729 60.798 21.103 59.1418 21.851 57.6993C22.5989 56.3103 23.614 55.5623 24.6825 55.5623C26.8729 55.5623 28.5825 58.5541 28.5825 62.3473C28.636 63.9501 28.262 65.6063 27.514 67.0488C26.8195 68.4378 25.8044 69.1858 24.6825 69.1858ZM24.6825 56.6308C23.988 56.6308 23.2934 57.2185 22.7592 58.1802C22.1181 59.4624 21.7975 60.9049 21.851 62.3473C21.851 65.446 23.1332 68.0638 24.6825 68.0638C25.377 68.0638 26.0715 67.4762 26.6058 66.5145C27.2469 65.2323 27.5675 63.7898 27.514 62.3473C27.514 59.3021 26.2318 56.6308 24.6825 56.6308Z" fill="#48515A"/>
<path d="M30.8799 62.0802H18.592V63.1487H30.8799V62.0802Z" fill="#48515A"/>
<path d="M88.0983 46.9608L86.6023 45.3046H85.1599L83.6639 46.9608L80.7255 45.732L80.8324 43.4882L79.8173 42.4731L77.5735 42.58L76.3447 39.6416L78.0009 38.1456V36.7032L76.3447 35.2073L77.5735 32.2689L79.8173 32.3757L80.8324 31.3606L80.7255 29.1168L83.6639 27.888L85.1599 29.5442H86.6023L88.0983 27.888L91.0367 29.1168L90.9298 31.3606L91.9449 32.3757L94.1887 32.2689L95.4175 35.2073L93.7613 36.7032V38.1456L95.4175 39.6416L94.1887 42.58L91.9449 42.4731L90.9298 43.4882L91.0367 45.732L88.0983 46.9608ZM84.7324 44.2361H87.0832L88.4188 45.6786L89.9147 45.0375L89.8078 43.0608L91.464 41.4046L93.4408 41.5115L94.0819 40.0155L92.6394 38.6799V36.3292L94.0819 34.9936L93.4408 33.4977L91.464 33.6045L89.8078 31.9483L89.9147 29.9716L88.4188 29.3305L87.0832 30.773H84.7324L83.3968 29.3305L81.9009 29.9716L82.0078 31.9483L80.3516 33.6045L78.3749 33.4977L77.7337 34.9936L79.1762 36.3292V38.6799L77.7337 40.0155L78.3749 41.5115L80.3516 41.4046L82.0078 43.0608L81.9009 45.0375L83.3968 45.6786L84.7324 44.2361Z" fill="#48515A"/>
<path d="M85.9078 39.9621C84.5722 39.9621 83.4503 38.8402 83.4503 37.5046C83.4503 36.1689 84.5188 35.047 85.9078 35.047C87.2435 35.047 88.3654 36.1155 88.3654 37.5046C88.312 38.8402 87.2435 39.9621 85.9078 39.9621ZM85.9078 36.1155C85.1599 36.1155 84.5188 36.7566 84.5188 37.5046C84.5188 38.2525 85.1599 38.8936 85.9078 38.8936C86.6558 38.8936 87.2969 38.2525 87.2969 37.5046C87.2435 36.7566 86.6558 36.1155 85.9078 36.1155Z" fill="#48515A"/>
</svg>
